<mxfile host="app.diagrams.net" agent="Mozilla/5.0 (Windows NT 10.0; Win64; x64) AppleWebKit/537.36 (KHTML, like Gecko) Chrome/134.0.0.0 Safari/537.36" version="26.2.5" pages="6">
  <diagram name="Cadastro de Aluno" id="Kxj-sncLvuSgpgrLd5fi">
    <mxGraphModel dx="875" dy="435" grid="1" gridSize="10" guides="1" tooltips="1" connect="1" arrows="1" fold="1" page="1" pageScale="1" pageWidth="827" pageHeight="1169" math="0" shadow="0">
      <root>
        <mxCell id="0" />
        <mxCell id="1" parent="0" />
        <mxCell id="2" value="Início" style="ellipse;aspect=fixed;strokeWidth=2;whiteSpace=wrap;" parent="1" vertex="1">
          <mxGeometry x="81" y="110" width="50" height="50" as="geometry" />
        </mxCell>
        <mxCell id="3" value="Página Inicial" style="rhombus;strokeWidth=2;whiteSpace=wrap;" parent="1" vertex="1">
          <mxGeometry x="42" y="202" width="129" height="129" as="geometry" />
        </mxCell>
        <mxCell id="4" value="Página de Formulário de Cadastro" style="whiteSpace=wrap;strokeWidth=2;" parent="1" vertex="1">
          <mxGeometry x="38" y="392" width="136" height="54" as="geometry" />
        </mxCell>
        <mxCell id="5" value="Página Inicial do Usuário Aluno" style="rhombus;strokeWidth=2;whiteSpace=wrap;" parent="1" vertex="1">
          <mxGeometry x="540" y="213" width="128" height="128" as="geometry" />
        </mxCell>
        <mxCell id="10" value="Usuário acessa a página" style="curved=1;startArrow=none;endArrow=block;exitX=0.5;exitY=1;entryX=0.5;entryY=0;" parent="1" source="2" target="3" edge="1">
          <mxGeometry relative="1" as="geometry">
            <Array as="points" />
          </mxGeometry>
        </mxCell>
        <mxCell id="11" value="  Usuário seleciona &#39;&#39;Cadastrar como Aluno&quot;" style="curved=1;startArrow=none;endArrow=block;exitX=0.5;exitY=1;entryX=0.5;entryY=0;exitDx=0;exitDy=0;entryDx=0;entryDy=0;" parent="1" source="3" target="4" edge="1">
          <mxGeometry x="-0.3232" y="14" relative="1" as="geometry">
            <Array as="points" />
            <mxPoint as="offset" />
          </mxGeometry>
        </mxCell>
        <mxCell id="1JzqEaPt0f89XTtrBWNc-18" value="" style="curved=1;startArrow=none;endArrow=block;entryX=0.5;entryY=1;entryDx=0;entryDy=0;" edge="1" parent="1" target="1JzqEaPt0f89XTtrBWNc-16">
          <mxGeometry x="-0.7294" y="1" relative="1" as="geometry">
            <Array as="points">
              <mxPoint x="340" y="422" />
            </Array>
            <mxPoint x="174" y="422" as="sourcePoint" />
            <mxPoint x="340" y="342" as="targetPoint" />
            <mxPoint as="offset" />
          </mxGeometry>
        </mxCell>
        <mxCell id="1JzqEaPt0f89XTtrBWNc-32" style="edgeStyle=orthogonalEdgeStyle;rounded=0;orthogonalLoop=1;jettySize=auto;html=1;entryX=0.652;entryY=0.027;entryDx=0;entryDy=0;entryPerimeter=0;" edge="1" parent="1" source="1JzqEaPt0f89XTtrBWNc-35" target="1JzqEaPt0f89XTtrBWNc-16">
          <mxGeometry relative="1" as="geometry">
            <mxPoint x="410" y="230" as="targetPoint" />
            <mxPoint x="350" y="230" as="sourcePoint" />
            <Array as="points">
              <mxPoint x="280" y="277" />
              <mxPoint x="280" y="200" />
              <mxPoint x="389" y="200" />
            </Array>
          </mxGeometry>
        </mxCell>
        <mxCell id="1JzqEaPt0f89XTtrBWNc-38" style="edgeStyle=orthogonalEdgeStyle;rounded=0;orthogonalLoop=1;jettySize=auto;html=1;exitX=0;exitY=0.5;exitDx=0;exitDy=0;" edge="1" parent="1" source="1JzqEaPt0f89XTtrBWNc-16" target="1JzqEaPt0f89XTtrBWNc-35">
          <mxGeometry relative="1" as="geometry" />
        </mxCell>
        <mxCell id="1JzqEaPt0f89XTtrBWNc-16" value="Validação" style="rounded=1;whiteSpace=wrap;html=1;arcSize=34;" vertex="1" parent="1">
          <mxGeometry x="340" y="262" width="75.5" height="30" as="geometry" />
        </mxCell>
        <mxCell id="12" value="Usuário preenche informações" style="startArrow=none;endArrow=block;entryX=0;entryY=0.5;entryDx=0;entryDy=0;exitX=1;exitY=0.5;exitDx=0;exitDy=0;" parent="1" source="1JzqEaPt0f89XTtrBWNc-33" target="5" edge="1">
          <mxGeometry x="-1" y="-168" relative="1" as="geometry">
            <mxPoint x="157" y="682" as="sourcePoint" />
            <mxPoint x="89" y="752" as="targetPoint" />
            <mxPoint x="-140" y="-75" as="offset" />
          </mxGeometry>
        </mxCell>
        <mxCell id="1JzqEaPt0f89XTtrBWNc-26" value="CADASTRO DE USUÁRIO ALUNO" style="rounded=0;whiteSpace=wrap;html=1;" vertex="1" parent="1">
          <mxGeometry x="240" y="20" width="300" height="40" as="geometry" />
        </mxCell>
        <mxCell id="1JzqEaPt0f89XTtrBWNc-34" value="" style="startArrow=none;endArrow=block;exitX=1;exitY=0.5;exitDx=0;exitDy=0;" edge="1" parent="1" source="1JzqEaPt0f89XTtrBWNc-16" target="1JzqEaPt0f89XTtrBWNc-33">
          <mxGeometry x="-1" y="-142" relative="1" as="geometry">
            <mxPoint x="416" y="277" as="sourcePoint" />
            <mxPoint x="510" y="277" as="targetPoint" />
            <mxPoint x="-95" y="-37" as="offset" />
          </mxGeometry>
        </mxCell>
        <mxCell id="1JzqEaPt0f89XTtrBWNc-33" value="sim" style="text;html=1;align=center;verticalAlign=middle;resizable=0;points=[];autosize=1;strokeColor=none;fillColor=none;" vertex="1" parent="1">
          <mxGeometry x="460" y="262" width="40" height="30" as="geometry" />
        </mxCell>
        <mxCell id="1JzqEaPt0f89XTtrBWNc-35" value="não" style="text;html=1;align=center;verticalAlign=middle;resizable=0;points=[];autosize=1;strokeColor=none;fillColor=none;" vertex="1" parent="1">
          <mxGeometry x="260" y="262" width="40" height="30" as="geometry" />
        </mxCell>
        <mxCell id="1JzqEaPt0f89XTtrBWNc-39" value="" style="endArrow=none;dashed=1;html=1;rounded=0;exitX=1;exitY=0.5;exitDx=0;exitDy=0;" edge="1" parent="1" source="5">
          <mxGeometry width="50" height="50" relative="1" as="geometry">
            <mxPoint x="680" y="280" as="sourcePoint" />
            <mxPoint x="830" y="277" as="targetPoint" />
          </mxGeometry>
        </mxCell>
      </root>
    </mxGraphModel>
  </diagram>
  <diagram id="wWL2TRv_bGHHRniBf4mK" name="Inscrição em Projeto (Aluno)">
    <mxGraphModel dx="955" dy="475" grid="1" gridSize="10" guides="1" tooltips="1" connect="1" arrows="1" fold="1" page="1" pageScale="1" pageWidth="827" pageHeight="1169" math="0" shadow="0">
      <root>
        <mxCell id="0" />
        <mxCell id="1" parent="0" />
        <mxCell id="kNd7Pl2Y7C9tZ3G847ne-2" value="" style="endArrow=none;dashed=1;html=1;rounded=0;" edge="1" parent="1">
          <mxGeometry width="50" height="50" relative="1" as="geometry">
            <mxPoint x="140" y="160" as="sourcePoint" />
            <mxPoint x="140" y="120" as="targetPoint" />
          </mxGeometry>
        </mxCell>
        <mxCell id="kNd7Pl2Y7C9tZ3G847ne-6" value="" style="edgeStyle=orthogonalEdgeStyle;rounded=0;orthogonalLoop=1;jettySize=auto;html=1;" edge="1" parent="1" source="kNd7Pl2Y7C9tZ3G847ne-3">
          <mxGeometry relative="1" as="geometry">
            <mxPoint x="140" y="210" as="targetPoint" />
          </mxGeometry>
        </mxCell>
        <mxCell id="kNd7Pl2Y7C9tZ3G847ne-3" value="Aluno faz login" style="text;html=1;align=center;verticalAlign=middle;resizable=0;points=[];autosize=1;strokeColor=none;fillColor=none;" vertex="1" parent="1">
          <mxGeometry x="90" y="160" width="100" height="30" as="geometry" />
        </mxCell>
        <mxCell id="kNd7Pl2Y7C9tZ3G847ne-9" value="" style="edgeStyle=orthogonalEdgeStyle;rounded=0;orthogonalLoop=1;jettySize=auto;html=1;" edge="1" parent="1" source="kNd7Pl2Y7C9tZ3G847ne-10" target="kNd7Pl2Y7C9tZ3G847ne-8">
          <mxGeometry relative="1" as="geometry" />
        </mxCell>
        <mxCell id="kNd7Pl2Y7C9tZ3G847ne-7" value="Página Inicial do Usuário Aluno" style="rounded=0;whiteSpace=wrap;html=1;" vertex="1" parent="1">
          <mxGeometry x="80" y="210" width="120" height="60" as="geometry" />
        </mxCell>
        <mxCell id="kNd7Pl2Y7C9tZ3G847ne-16" value="" style="edgeStyle=orthogonalEdgeStyle;rounded=0;orthogonalLoop=1;jettySize=auto;html=1;" edge="1" parent="1" source="kNd7Pl2Y7C9tZ3G847ne-8" target="kNd7Pl2Y7C9tZ3G847ne-14">
          <mxGeometry relative="1" as="geometry" />
        </mxCell>
        <mxCell id="kNd7Pl2Y7C9tZ3G847ne-8" value="Página de Projetos" style="whiteSpace=wrap;html=1;rounded=0;" vertex="1" parent="1">
          <mxGeometry x="80" y="350" width="120" height="60" as="geometry" />
        </mxCell>
        <mxCell id="kNd7Pl2Y7C9tZ3G847ne-11" value="" style="edgeStyle=orthogonalEdgeStyle;rounded=0;orthogonalLoop=1;jettySize=auto;html=1;" edge="1" parent="1" source="kNd7Pl2Y7C9tZ3G847ne-7" target="kNd7Pl2Y7C9tZ3G847ne-10">
          <mxGeometry relative="1" as="geometry">
            <mxPoint x="140" y="270" as="sourcePoint" />
            <mxPoint x="140" y="350" as="targetPoint" />
          </mxGeometry>
        </mxCell>
        <mxCell id="kNd7Pl2Y7C9tZ3G847ne-10" value="Aluno clica em &quot;Projetos&quot;" style="text;html=1;align=center;verticalAlign=middle;resizable=0;points=[];autosize=1;strokeColor=none;fillColor=none;" vertex="1" parent="1">
          <mxGeometry x="60" y="290" width="160" height="30" as="geometry" />
        </mxCell>
        <mxCell id="kNd7Pl2Y7C9tZ3G847ne-18" value="" style="edgeStyle=orthogonalEdgeStyle;rounded=0;orthogonalLoop=1;jettySize=auto;html=1;" edge="1" parent="1" source="kNd7Pl2Y7C9tZ3G847ne-14" target="kNd7Pl2Y7C9tZ3G847ne-17">
          <mxGeometry relative="1" as="geometry" />
        </mxCell>
        <mxCell id="kNd7Pl2Y7C9tZ3G847ne-14" value="Aluno seleciona um projeto na lista" style="text;strokeColor=none;align=center;fillColor=none;html=1;verticalAlign=middle;whiteSpace=wrap;rounded=0;" vertex="1" parent="1">
          <mxGeometry x="85" y="450" width="110" height="30" as="geometry" />
        </mxCell>
        <mxCell id="kNd7Pl2Y7C9tZ3G847ne-20" value="" style="edgeStyle=orthogonalEdgeStyle;rounded=0;orthogonalLoop=1;jettySize=auto;html=1;" edge="1" parent="1" source="kNd7Pl2Y7C9tZ3G847ne-17" target="kNd7Pl2Y7C9tZ3G847ne-19">
          <mxGeometry relative="1" as="geometry" />
        </mxCell>
        <mxCell id="kNd7Pl2Y7C9tZ3G847ne-17" value="Página do projeto" style="whiteSpace=wrap;html=1;" vertex="1" parent="1">
          <mxGeometry x="290" y="435" width="120" height="60" as="geometry" />
        </mxCell>
        <mxCell id="kNd7Pl2Y7C9tZ3G847ne-22" style="edgeStyle=orthogonalEdgeStyle;rounded=0;orthogonalLoop=1;jettySize=auto;html=1;entryX=0.5;entryY=1;entryDx=0;entryDy=0;" edge="1" parent="1" source="kNd7Pl2Y7C9tZ3G847ne-19" target="kNd7Pl2Y7C9tZ3G847ne-21">
          <mxGeometry relative="1" as="geometry" />
        </mxCell>
        <mxCell id="kNd7Pl2Y7C9tZ3G847ne-19" value="Aluno clica em &quot;Inscrever-se&quot;" style="text;html=1;align=center;verticalAlign=middle;resizable=0;points=[];autosize=1;strokeColor=none;fillColor=none;" vertex="1" parent="1">
          <mxGeometry x="260" y="380" width="180" height="30" as="geometry" />
        </mxCell>
        <mxCell id="kNd7Pl2Y7C9tZ3G847ne-26" value="" style="edgeStyle=orthogonalEdgeStyle;rounded=0;orthogonalLoop=1;jettySize=auto;html=1;" edge="1" parent="1" source="kNd7Pl2Y7C9tZ3G847ne-27" target="kNd7Pl2Y7C9tZ3G847ne-25">
          <mxGeometry relative="1" as="geometry" />
        </mxCell>
        <mxCell id="kNd7Pl2Y7C9tZ3G847ne-30" value="" style="edgeStyle=orthogonalEdgeStyle;rounded=0;orthogonalLoop=1;jettySize=auto;html=1;" edge="1" parent="1" source="kNd7Pl2Y7C9tZ3G847ne-21" target="kNd7Pl2Y7C9tZ3G847ne-29">
          <mxGeometry relative="1" as="geometry">
            <Array as="points">
              <mxPoint x="298" y="250" />
              <mxPoint x="298" y="250" />
            </Array>
          </mxGeometry>
        </mxCell>
        <mxCell id="kNd7Pl2Y7C9tZ3G847ne-21" value="validação&lt;div&gt;&lt;br&gt;&lt;/div&gt;&lt;div&gt;Instituição do aluno é compatível com o projeto?&lt;/div&gt;" style="rounded=1;whiteSpace=wrap;html=1;" vertex="1" parent="1">
          <mxGeometry x="277.5" y="275" width="145" height="60" as="geometry" />
        </mxCell>
        <mxCell id="kNd7Pl2Y7C9tZ3G847ne-24" value="" style="endArrow=none;dashed=1;html=1;dashPattern=1 3;strokeWidth=2;rounded=0;" edge="1" parent="1">
          <mxGeometry width="50" height="50" relative="1" as="geometry">
            <mxPoint x="300" y="300" as="sourcePoint" />
            <mxPoint x="400" y="300" as="targetPoint" />
          </mxGeometry>
        </mxCell>
        <mxCell id="kNd7Pl2Y7C9tZ3G847ne-25" value="Página do projeto com acesso as informações" style="whiteSpace=wrap;html=1;rounded=1;" vertex="1" parent="1">
          <mxGeometry x="550" y="275" width="120" height="60" as="geometry" />
        </mxCell>
        <mxCell id="kNd7Pl2Y7C9tZ3G847ne-28" value="" style="edgeStyle=orthogonalEdgeStyle;rounded=0;orthogonalLoop=1;jettySize=auto;html=1;" edge="1" parent="1" source="kNd7Pl2Y7C9tZ3G847ne-21" target="kNd7Pl2Y7C9tZ3G847ne-27">
          <mxGeometry relative="1" as="geometry">
            <mxPoint x="350" y="275" as="sourcePoint" />
            <mxPoint x="350" y="195" as="targetPoint" />
          </mxGeometry>
        </mxCell>
        <mxCell id="kNd7Pl2Y7C9tZ3G847ne-27" value="sim" style="text;html=1;align=center;verticalAlign=middle;resizable=0;points=[];autosize=1;strokeColor=none;fillColor=none;" vertex="1" parent="1">
          <mxGeometry x="470" y="290" width="40" height="30" as="geometry" />
        </mxCell>
        <mxCell id="kNd7Pl2Y7C9tZ3G847ne-31" style="edgeStyle=orthogonalEdgeStyle;rounded=0;orthogonalLoop=1;jettySize=auto;html=1;entryX=0.75;entryY=0;entryDx=0;entryDy=0;" edge="1" parent="1" source="kNd7Pl2Y7C9tZ3G847ne-29" target="kNd7Pl2Y7C9tZ3G847ne-21">
          <mxGeometry relative="1" as="geometry">
            <mxPoint x="380" y="240" as="targetPoint" />
            <Array as="points">
              <mxPoint x="298" y="140" />
              <mxPoint x="386" y="140" />
            </Array>
          </mxGeometry>
        </mxCell>
        <mxCell id="kNd7Pl2Y7C9tZ3G847ne-29" value="não" style="text;html=1;align=center;verticalAlign=middle;resizable=0;points=[];autosize=1;strokeColor=none;fillColor=none;" vertex="1" parent="1">
          <mxGeometry x="277.5" y="150" width="40" height="30" as="geometry" />
        </mxCell>
        <mxCell id="kNd7Pl2Y7C9tZ3G847ne-32" value="INSCRIÇÃO EM PROJETO (ALUNO)" style="rounded=0;whiteSpace=wrap;html=1;" vertex="1" parent="1">
          <mxGeometry x="240" y="60" width="200" height="40" as="geometry" />
        </mxCell>
      </root>
    </mxGraphModel>
  </diagram>
  <diagram name="Criação de Projeto (Orientador)" id="y9KebrOe-tO6__N8rVpo">
    <mxGraphModel dx="1000" dy="497" grid="1" gridSize="10" guides="1" tooltips="1" connect="1" arrows="1" fold="1" page="1" pageScale="1" pageWidth="827" pageHeight="1169" math="0" shadow="0">
      <root>
        <mxCell id="n1pVTzIttGPscCmK2Lhh-0" />
        <mxCell id="n1pVTzIttGPscCmK2Lhh-1" parent="n1pVTzIttGPscCmK2Lhh-0" />
        <mxCell id="n1pVTzIttGPscCmK2Lhh-2" value="" style="endArrow=none;dashed=1;html=1;rounded=0;" edge="1" parent="n1pVTzIttGPscCmK2Lhh-1">
          <mxGeometry width="50" height="50" relative="1" as="geometry">
            <mxPoint x="199" y="170" as="sourcePoint" />
            <mxPoint x="199" y="130" as="targetPoint" />
          </mxGeometry>
        </mxCell>
        <mxCell id="n1pVTzIttGPscCmK2Lhh-3" value="" style="edgeStyle=orthogonalEdgeStyle;rounded=0;orthogonalLoop=1;jettySize=auto;html=1;" edge="1" parent="n1pVTzIttGPscCmK2Lhh-1" source="n1pVTzIttGPscCmK2Lhh-4">
          <mxGeometry relative="1" as="geometry">
            <mxPoint x="199" y="220" as="targetPoint" />
          </mxGeometry>
        </mxCell>
        <mxCell id="n1pVTzIttGPscCmK2Lhh-4" value="Orientador faz login" style="text;html=1;align=center;verticalAlign=middle;resizable=0;points=[];autosize=1;strokeColor=none;fillColor=none;" vertex="1" parent="n1pVTzIttGPscCmK2Lhh-1">
          <mxGeometry x="134" y="170" width="130" height="30" as="geometry" />
        </mxCell>
        <mxCell id="n1pVTzIttGPscCmK2Lhh-5" value="" style="edgeStyle=orthogonalEdgeStyle;rounded=0;orthogonalLoop=1;jettySize=auto;html=1;" edge="1" parent="n1pVTzIttGPscCmK2Lhh-1" source="n1pVTzIttGPscCmK2Lhh-10" target="n1pVTzIttGPscCmK2Lhh-8">
          <mxGeometry relative="1" as="geometry" />
        </mxCell>
        <mxCell id="n1pVTzIttGPscCmK2Lhh-6" value="Página Inicial do Usuário Orientador" style="rounded=0;whiteSpace=wrap;html=1;" vertex="1" parent="n1pVTzIttGPscCmK2Lhh-1">
          <mxGeometry x="139" y="220" width="120" height="60" as="geometry" />
        </mxCell>
        <mxCell id="n1pVTzIttGPscCmK2Lhh-7" value="" style="edgeStyle=orthogonalEdgeStyle;rounded=0;orthogonalLoop=1;jettySize=auto;html=1;" edge="1" parent="n1pVTzIttGPscCmK2Lhh-1" source="n1pVTzIttGPscCmK2Lhh-8" target="n1pVTzIttGPscCmK2Lhh-12">
          <mxGeometry relative="1" as="geometry" />
        </mxCell>
        <mxCell id="n1pVTzIttGPscCmK2Lhh-8" value="Página de Formulário para criar novo projeto" style="whiteSpace=wrap;html=1;rounded=0;" vertex="1" parent="n1pVTzIttGPscCmK2Lhh-1">
          <mxGeometry x="139" y="360" width="120" height="60" as="geometry" />
        </mxCell>
        <mxCell id="n1pVTzIttGPscCmK2Lhh-9" value="" style="edgeStyle=orthogonalEdgeStyle;rounded=0;orthogonalLoop=1;jettySize=auto;html=1;" edge="1" parent="n1pVTzIttGPscCmK2Lhh-1" source="n1pVTzIttGPscCmK2Lhh-6" target="n1pVTzIttGPscCmK2Lhh-10">
          <mxGeometry relative="1" as="geometry">
            <mxPoint x="199" y="280" as="sourcePoint" />
            <mxPoint x="199" y="360" as="targetPoint" />
          </mxGeometry>
        </mxCell>
        <mxCell id="n1pVTzIttGPscCmK2Lhh-10" value="Orientador clica em &quot;Novo Projeto&quot;" style="text;html=1;align=center;verticalAlign=middle;resizable=0;points=[];autosize=1;strokeColor=none;fillColor=none;" vertex="1" parent="n1pVTzIttGPscCmK2Lhh-1">
          <mxGeometry x="94" y="300" width="210" height="30" as="geometry" />
        </mxCell>
        <mxCell id="n1pVTzIttGPscCmK2Lhh-12" value="Orientador preenche formulário" style="text;strokeColor=none;align=center;fillColor=none;html=1;verticalAlign=middle;whiteSpace=wrap;rounded=0;" vertex="1" parent="n1pVTzIttGPscCmK2Lhh-1">
          <mxGeometry x="144" y="460" width="110" height="30" as="geometry" />
        </mxCell>
        <mxCell id="n1pVTzIttGPscCmK2Lhh-26" value="CRIAÇÃO DE PROJETO&lt;div&gt;(ORIENTADOR)&lt;/div&gt;" style="rounded=0;whiteSpace=wrap;html=1;" vertex="1" parent="n1pVTzIttGPscCmK2Lhh-1">
          <mxGeometry x="240" y="60" width="200" height="40" as="geometry" />
        </mxCell>
        <mxCell id="CuNflscjJhLv4EZ2he9_-2" value="" style="edgeStyle=orthogonalEdgeStyle;rounded=0;orthogonalLoop=1;jettySize=auto;html=1;" edge="1" parent="n1pVTzIttGPscCmK2Lhh-1" source="n1pVTzIttGPscCmK2Lhh-12" target="CuNflscjJhLv4EZ2he9_-1">
          <mxGeometry relative="1" as="geometry">
            <mxPoint x="254" y="475" as="sourcePoint" />
            <mxPoint x="349" y="475" as="targetPoint" />
          </mxGeometry>
        </mxCell>
        <mxCell id="CuNflscjJhLv4EZ2he9_-3" style="edgeStyle=orthogonalEdgeStyle;rounded=0;orthogonalLoop=1;jettySize=auto;html=1;exitX=0.5;exitY=0;exitDx=0;exitDy=0;entryX=1;entryY=0.5;entryDx=0;entryDy=0;" edge="1" parent="n1pVTzIttGPscCmK2Lhh-1" source="CuNflscjJhLv4EZ2he9_-4" target="n1pVTzIttGPscCmK2Lhh-6">
          <mxGeometry relative="1" as="geometry">
            <Array as="points">
              <mxPoint x="374" y="250" />
            </Array>
          </mxGeometry>
        </mxCell>
        <mxCell id="CuNflscjJhLv4EZ2he9_-6" value="" style="edgeStyle=orthogonalEdgeStyle;rounded=0;orthogonalLoop=1;jettySize=auto;html=1;" edge="1" parent="n1pVTzIttGPscCmK2Lhh-1" source="CuNflscjJhLv4EZ2he9_-1" target="CuNflscjJhLv4EZ2he9_-4">
          <mxGeometry relative="1" as="geometry" />
        </mxCell>
        <mxCell id="CuNflscjJhLv4EZ2he9_-1" value="Página de confirmação" style="rhombus;whiteSpace=wrap;html=1;" vertex="1" parent="n1pVTzIttGPscCmK2Lhh-1">
          <mxGeometry x="324" y="427.5" width="100" height="95" as="geometry" />
        </mxCell>
        <mxCell id="CuNflscjJhLv4EZ2he9_-4" value="Operação cancelada" style="text;html=1;align=center;verticalAlign=middle;resizable=0;points=[];autosize=1;strokeColor=none;fillColor=none;" vertex="1" parent="n1pVTzIttGPscCmK2Lhh-1">
          <mxGeometry x="309" y="360" width="130" height="30" as="geometry" />
        </mxCell>
        <mxCell id="CuNflscjJhLv4EZ2he9_-10" value="" style="edgeStyle=orthogonalEdgeStyle;rounded=0;orthogonalLoop=1;jettySize=auto;html=1;" edge="1" parent="n1pVTzIttGPscCmK2Lhh-1" source="CuNflscjJhLv4EZ2he9_-7" target="CuNflscjJhLv4EZ2he9_-9">
          <mxGeometry relative="1" as="geometry" />
        </mxCell>
        <mxCell id="CuNflscjJhLv4EZ2he9_-7" value="Operação confirmada" style="text;html=1;align=center;verticalAlign=middle;resizable=0;points=[];autosize=1;strokeColor=none;fillColor=none;" vertex="1" parent="n1pVTzIttGPscCmK2Lhh-1">
          <mxGeometry x="473" y="460" width="140" height="30" as="geometry" />
        </mxCell>
        <mxCell id="CuNflscjJhLv4EZ2he9_-8" value="" style="endArrow=classic;html=1;rounded=0;" edge="1" parent="n1pVTzIttGPscCmK2Lhh-1" target="CuNflscjJhLv4EZ2he9_-7">
          <mxGeometry width="50" height="50" relative="1" as="geometry">
            <mxPoint x="424" y="477.5" as="sourcePoint" />
            <mxPoint x="474" y="427.5" as="targetPoint" />
          </mxGeometry>
        </mxCell>
        <mxCell id="CuNflscjJhLv4EZ2he9_-9" value="Página Inicial do Novo Projeto" style="whiteSpace=wrap;html=1;" vertex="1" parent="n1pVTzIttGPscCmK2Lhh-1">
          <mxGeometry x="483" y="335" width="120" height="60" as="geometry" />
        </mxCell>
        <mxCell id="CuNflscjJhLv4EZ2he9_-14" value="" style="endArrow=none;dashed=1;html=1;rounded=0;" edge="1" parent="n1pVTzIttGPscCmK2Lhh-1">
          <mxGeometry width="50" height="50" relative="1" as="geometry">
            <mxPoint x="603" y="370" as="sourcePoint" />
            <mxPoint x="734" y="370" as="targetPoint" />
          </mxGeometry>
        </mxCell>
      </root>
    </mxGraphModel>
  </diagram>
  <diagram id="UN9iUtHbe0R6VMzgExkJ" name="Entidades e Restrições">
    <mxGraphModel grid="1" page="1" gridSize="10" guides="1" tooltips="1" connect="1" arrows="1" fold="1" pageScale="1" pageWidth="827" pageHeight="1169" math="0" shadow="0">
      <root>
        <mxCell id="0" />
        <mxCell id="1" parent="0" />
        <mxCell id="rthREr-rMwXgmIOKMFvC-1" value="Aluno" style="swimlane;fontStyle=0;childLayout=stackLayout;horizontal=1;startSize=30;horizontalStack=0;resizeParent=1;resizeParentMax=0;resizeLast=0;collapsible=1;marginBottom=0;whiteSpace=wrap;html=1;fillColor=#fff2cc;strokeColor=#d6b656;" parent="1" vertex="1">
          <mxGeometry x="30" y="70" width="140" height="370" as="geometry">
            <mxRectangle x="40" y="90" width="70" height="30" as="alternateBounds" />
          </mxGeometry>
        </mxCell>
        <mxCell id="rthREr-rMwXgmIOKMFvC-3" value="nome" style="text;strokeColor=none;fillColor=none;align=left;verticalAlign=middle;spacingLeft=4;spacingRight=4;overflow=hidden;points=[[0,0.5],[1,0.5]];portConstraint=eastwest;rotatable=0;whiteSpace=wrap;html=1;" parent="rthREr-rMwXgmIOKMFvC-1" vertex="1">
          <mxGeometry y="30" width="140" height="30" as="geometry" />
        </mxCell>
        <mxCell id="rthREr-rMwXgmIOKMFvC-4" value="email" style="text;strokeColor=none;fillColor=none;align=left;verticalAlign=middle;spacingLeft=4;spacingRight=4;overflow=hidden;points=[[0,0.5],[1,0.5]];portConstraint=eastwest;rotatable=0;whiteSpace=wrap;html=1;" parent="rthREr-rMwXgmIOKMFvC-1" vertex="1">
          <mxGeometry y="60" width="140" height="30" as="geometry" />
        </mxCell>
        <mxCell id="rthREr-rMwXgmIOKMFvC-2" value="id_aluno&lt;span style=&quot;white-space: pre;&quot;&gt;&#x9;&lt;/span&gt;" style="text;strokeColor=none;fillColor=none;align=left;verticalAlign=middle;spacingLeft=4;spacingRight=4;overflow=hidden;points=[[0,0.5],[1,0.5]];portConstraint=eastwest;rotatable=0;whiteSpace=wrap;html=1;" parent="rthREr-rMwXgmIOKMFvC-1" vertex="1">
          <mxGeometry y="90" width="140" height="30" as="geometry" />
        </mxCell>
        <mxCell id="rthREr-rMwXgmIOKMFvC-30" value="senha" style="text;strokeColor=none;fillColor=none;align=left;verticalAlign=middle;spacingLeft=4;spacingRight=4;overflow=hidden;points=[[0,0.5],[1,0.5]];portConstraint=eastwest;rotatable=0;whiteSpace=wrap;html=1;" parent="rthREr-rMwXgmIOKMFvC-1" vertex="1">
          <mxGeometry y="120" width="140" height="30" as="geometry" />
        </mxCell>
        <mxCell id="rthREr-rMwXgmIOKMFvC-28" value="curso" style="text;strokeColor=none;fillColor=none;align=left;verticalAlign=middle;spacingLeft=4;spacingRight=4;overflow=hidden;points=[[0,0.5],[1,0.5]];portConstraint=eastwest;rotatable=0;whiteSpace=wrap;html=1;" parent="rthREr-rMwXgmIOKMFvC-1" vertex="1">
          <mxGeometry y="150" width="140" height="30" as="geometry" />
        </mxCell>
        <mxCell id="rthREr-rMwXgmIOKMFvC-27" value="projetos" style="text;strokeColor=none;fillColor=none;align=left;verticalAlign=middle;spacingLeft=4;spacingRight=4;overflow=hidden;points=[[0,0.5],[1,0.5]];portConstraint=eastwest;rotatable=0;whiteSpace=wrap;html=1;" parent="rthREr-rMwXgmIOKMFvC-1" vertex="1">
          <mxGeometry y="180" width="140" height="30" as="geometry" />
        </mxCell>
        <mxCell id="89KXkux1pFZ6nRGSHGBm-3" value="certificados" style="text;whiteSpace=wrap;html=1;" parent="rthREr-rMwXgmIOKMFvC-1" vertex="1">
          <mxGeometry y="210" width="140" height="40" as="geometry" />
        </mxCell>
        <mxCell id="89KXkux1pFZ6nRGSHGBm-5" value="tarefas" style="text;whiteSpace=wrap;html=1;" parent="rthREr-rMwXgmIOKMFvC-1" vertex="1">
          <mxGeometry y="250" width="140" height="40" as="geometry" />
        </mxCell>
        <mxCell id="89KXkux1pFZ6nRGSHGBm-6" value="feedbacks" style="text;whiteSpace=wrap;html=1;" parent="rthREr-rMwXgmIOKMFvC-1" vertex="1">
          <mxGeometry y="290" width="140" height="40" as="geometry" />
        </mxCell>
        <mxCell id="89KXkux1pFZ6nRGSHGBm-9" value="favoritos" style="text;whiteSpace=wrap;html=1;" parent="rthREr-rMwXgmIOKMFvC-1" vertex="1">
          <mxGeometry y="330" width="140" height="40" as="geometry" />
        </mxCell>
        <mxCell id="rthREr-rMwXgmIOKMFvC-5" value="Nota" style="swimlane;fontStyle=0;childLayout=stackLayout;horizontal=1;startSize=30;horizontalStack=0;resizeParent=1;resizeParentMax=0;resizeLast=0;collapsible=1;marginBottom=0;whiteSpace=wrap;html=1;fillColor=#fff2cc;strokeColor=#d6b656;" parent="1" vertex="1">
          <mxGeometry x="450" y="480" width="140" height="150" as="geometry" />
        </mxCell>
        <mxCell id="rthREr-rMwXgmIOKMFvC-6" value="id_nota" style="text;strokeColor=none;fillColor=none;align=left;verticalAlign=middle;spacingLeft=4;spacingRight=4;overflow=hidden;points=[[0,0.5],[1,0.5]];portConstraint=eastwest;rotatable=0;whiteSpace=wrap;html=1;" parent="rthREr-rMwXgmIOKMFvC-5" vertex="1">
          <mxGeometry y="30" width="140" height="30" as="geometry" />
        </mxCell>
        <mxCell id="rthREr-rMwXgmIOKMFvC-7" value="aluno_id" style="text;strokeColor=none;fillColor=none;align=left;verticalAlign=middle;spacingLeft=4;spacingRight=4;overflow=hidden;points=[[0,0.5],[1,0.5]];portConstraint=eastwest;rotatable=0;whiteSpace=wrap;html=1;" parent="rthREr-rMwXgmIOKMFvC-5" vertex="1">
          <mxGeometry y="60" width="140" height="30" as="geometry" />
        </mxCell>
        <mxCell id="rthREr-rMwXgmIOKMFvC-8" value="tarefas_id" style="text;strokeColor=none;fillColor=none;align=left;verticalAlign=middle;spacingLeft=4;spacingRight=4;overflow=hidden;points=[[0,0.5],[1,0.5]];portConstraint=eastwest;rotatable=0;whiteSpace=wrap;html=1;" parent="rthREr-rMwXgmIOKMFvC-5" vertex="1">
          <mxGeometry y="90" width="140" height="30" as="geometry" />
        </mxCell>
        <mxCell id="rthREr-rMwXgmIOKMFvC-43" value="pontuacao" style="text;strokeColor=none;fillColor=none;align=left;verticalAlign=middle;spacingLeft=4;spacingRight=4;overflow=hidden;points=[[0,0.5],[1,0.5]];portConstraint=eastwest;rotatable=0;whiteSpace=wrap;html=1;" parent="rthREr-rMwXgmIOKMFvC-5" vertex="1">
          <mxGeometry y="120" width="140" height="30" as="geometry" />
        </mxCell>
        <mxCell id="rthREr-rMwXgmIOKMFvC-9" value="Tarefa" style="swimlane;fontStyle=0;childLayout=stackLayout;horizontal=1;startSize=30;horizontalStack=0;resizeParent=1;resizeParentMax=0;resizeLast=0;collapsible=1;marginBottom=0;whiteSpace=wrap;html=1;fillColor=#fff2cc;strokeColor=#d6b656;" parent="1" vertex="1">
          <mxGeometry x="240" y="350" width="140" height="180" as="geometry" />
        </mxCell>
        <mxCell id="rthREr-rMwXgmIOKMFvC-10" value="id_tarefa" style="text;strokeColor=none;fillColor=none;align=left;verticalAlign=middle;spacingLeft=4;spacingRight=4;overflow=hidden;points=[[0,0.5],[1,0.5]];portConstraint=eastwest;rotatable=0;whiteSpace=wrap;html=1;" parent="rthREr-rMwXgmIOKMFvC-9" vertex="1">
          <mxGeometry y="30" width="140" height="30" as="geometry" />
        </mxCell>
        <mxCell id="rthREr-rMwXgmIOKMFvC-41" value="projeto_id&amp;nbsp;&amp;nbsp;" style="text;strokeColor=none;fillColor=none;align=left;verticalAlign=middle;spacingLeft=4;spacingRight=4;overflow=hidden;points=[[0,0.5],[1,0.5]];portConstraint=eastwest;rotatable=0;whiteSpace=wrap;html=1;" parent="rthREr-rMwXgmIOKMFvC-9" vertex="1">
          <mxGeometry y="60" width="140" height="30" as="geometry" />
        </mxCell>
        <mxCell id="rthREr-rMwXgmIOKMFvC-40" value="nome" style="text;strokeColor=none;fillColor=none;align=left;verticalAlign=middle;spacingLeft=4;spacingRight=4;overflow=hidden;points=[[0,0.5],[1,0.5]];portConstraint=eastwest;rotatable=0;whiteSpace=wrap;html=1;" parent="rthREr-rMwXgmIOKMFvC-9" vertex="1">
          <mxGeometry y="90" width="140" height="30" as="geometry" />
        </mxCell>
        <mxCell id="rthREr-rMwXgmIOKMFvC-11" value="descricao" style="text;strokeColor=none;fillColor=none;align=left;verticalAlign=middle;spacingLeft=4;spacingRight=4;overflow=hidden;points=[[0,0.5],[1,0.5]];portConstraint=eastwest;rotatable=0;whiteSpace=wrap;html=1;" parent="rthREr-rMwXgmIOKMFvC-9" vertex="1">
          <mxGeometry y="120" width="140" height="30" as="geometry" />
        </mxCell>
        <mxCell id="rthREr-rMwXgmIOKMFvC-12" value="data_entrega" style="text;strokeColor=none;fillColor=none;align=left;verticalAlign=middle;spacingLeft=4;spacingRight=4;overflow=hidden;points=[[0,0.5],[1,0.5]];portConstraint=eastwest;rotatable=0;whiteSpace=wrap;html=1;" parent="rthREr-rMwXgmIOKMFvC-9" vertex="1">
          <mxGeometry y="150" width="140" height="30" as="geometry" />
        </mxCell>
        <mxCell id="rthREr-rMwXgmIOKMFvC-17" value="Projeto" style="swimlane;fontStyle=0;childLayout=stackLayout;horizontal=1;startSize=30;horizontalStack=0;resizeParent=1;resizeParentMax=0;resizeLast=0;collapsible=1;marginBottom=0;whiteSpace=wrap;html=1;fillColor=#fff2cc;strokeColor=#d6b656;" parent="1" vertex="1">
          <mxGeometry x="450" y="90" width="140" height="360" as="geometry">
            <mxRectangle x="450" y="90" width="80" height="30" as="alternateBounds" />
          </mxGeometry>
        </mxCell>
        <mxCell id="rthREr-rMwXgmIOKMFvC-19" value="nome" style="text;strokeColor=none;fillColor=none;align=left;verticalAlign=middle;spacingLeft=4;spacingRight=4;overflow=hidden;points=[[0,0.5],[1,0.5]];portConstraint=eastwest;rotatable=0;whiteSpace=wrap;html=1;" parent="rthREr-rMwXgmIOKMFvC-17" vertex="1">
          <mxGeometry y="30" width="140" height="30" as="geometry" />
        </mxCell>
        <mxCell id="rthREr-rMwXgmIOKMFvC-36" value="descricao" style="text;strokeColor=none;fillColor=none;align=left;verticalAlign=middle;spacingLeft=4;spacingRight=4;overflow=hidden;points=[[0,0.5],[1,0.5]];portConstraint=eastwest;rotatable=0;whiteSpace=wrap;html=1;" parent="rthREr-rMwXgmIOKMFvC-17" vertex="1">
          <mxGeometry y="60" width="140" height="30" as="geometry" />
        </mxCell>
        <mxCell id="rthREr-rMwXgmIOKMFvC-18" value="id_projeto" style="text;strokeColor=none;fillColor=none;align=left;verticalAlign=middle;spacingLeft=4;spacingRight=4;overflow=hidden;points=[[0,0.5],[1,0.5]];portConstraint=eastwest;rotatable=0;whiteSpace=wrap;html=1;" parent="rthREr-rMwXgmIOKMFvC-17" vertex="1">
          <mxGeometry y="90" width="140" height="30" as="geometry" />
        </mxCell>
        <mxCell id="rthREr-rMwXgmIOKMFvC-34" value="requisitos" style="text;strokeColor=none;fillColor=none;align=left;verticalAlign=middle;spacingLeft=4;spacingRight=4;overflow=hidden;points=[[0,0.5],[1,0.5]];portConstraint=eastwest;rotatable=0;whiteSpace=wrap;html=1;" parent="rthREr-rMwXgmIOKMFvC-17" vertex="1">
          <mxGeometry y="120" width="140" height="30" as="geometry" />
        </mxCell>
        <mxCell id="rthREr-rMwXgmIOKMFvC-35" value="orientador_id" style="text;strokeColor=none;fillColor=none;align=left;verticalAlign=middle;spacingLeft=4;spacingRight=4;overflow=hidden;points=[[0,0.5],[1,0.5]];portConstraint=eastwest;rotatable=0;whiteSpace=wrap;html=1;" parent="rthREr-rMwXgmIOKMFvC-17" vertex="1">
          <mxGeometry y="150" width="140" height="30" as="geometry" />
        </mxCell>
        <mxCell id="rthREr-rMwXgmIOKMFvC-37" value="limite_vagas" style="text;strokeColor=none;fillColor=none;align=left;verticalAlign=middle;spacingLeft=4;spacingRight=4;overflow=hidden;points=[[0,0.5],[1,0.5]];portConstraint=eastwest;rotatable=0;whiteSpace=wrap;html=1;" parent="rthREr-rMwXgmIOKMFvC-17" vertex="1">
          <mxGeometry y="180" width="140" height="30" as="geometry" />
        </mxCell>
        <mxCell id="rthREr-rMwXgmIOKMFvC-20" value="certificado" style="text;strokeColor=none;fillColor=none;align=left;verticalAlign=middle;spacingLeft=4;spacingRight=4;overflow=hidden;points=[[0,0.5],[1,0.5]];portConstraint=eastwest;rotatable=0;whiteSpace=wrap;html=1;" parent="rthREr-rMwXgmIOKMFvC-17" vertex="1">
          <mxGeometry y="210" width="140" height="30" as="geometry" />
        </mxCell>
        <mxCell id="89KXkux1pFZ6nRGSHGBm-11" value="data_inicio" style="text;whiteSpace=wrap;html=1;" parent="rthREr-rMwXgmIOKMFvC-17" vertex="1">
          <mxGeometry y="240" width="140" height="40" as="geometry" />
        </mxCell>
        <mxCell id="89KXkux1pFZ6nRGSHGBm-16" value="data_fim" style="text;whiteSpace=wrap;html=1;" parent="rthREr-rMwXgmIOKMFvC-17" vertex="1">
          <mxGeometry y="280" width="140" height="40" as="geometry" />
        </mxCell>
        <mxCell id="89KXkux1pFZ6nRGSHGBm-17" value="alunos" style="text;whiteSpace=wrap;html=1;" parent="rthREr-rMwXgmIOKMFvC-17" vertex="1">
          <mxGeometry y="320" width="140" height="40" as="geometry" />
        </mxCell>
        <mxCell id="rthREr-rMwXgmIOKMFvC-21" value="Orientador" style="swimlane;fontStyle=0;childLayout=stackLayout;horizontal=1;startSize=30;horizontalStack=0;resizeParent=1;resizeParentMax=0;resizeLast=0;collapsible=1;marginBottom=0;whiteSpace=wrap;html=1;fillColor=#fff2cc;strokeColor=#d6b656;align=left;" parent="1" vertex="1">
          <mxGeometry x="240" y="70" width="140" height="220" as="geometry">
            <mxRectangle x="230" y="90" width="100" height="30" as="alternateBounds" />
          </mxGeometry>
        </mxCell>
        <mxCell id="rthREr-rMwXgmIOKMFvC-23" value="nome" style="text;strokeColor=none;fillColor=none;align=left;verticalAlign=middle;spacingLeft=4;spacingRight=4;overflow=hidden;points=[[0,0.5],[1,0.5]];portConstraint=eastwest;rotatable=0;whiteSpace=wrap;html=1;" parent="rthREr-rMwXgmIOKMFvC-21" vertex="1">
          <mxGeometry y="30" width="140" height="30" as="geometry" />
        </mxCell>
        <mxCell id="rthREr-rMwXgmIOKMFvC-32" value="email" style="text;strokeColor=none;fillColor=none;align=left;verticalAlign=middle;spacingLeft=4;spacingRight=4;overflow=hidden;points=[[0,0.5],[1,0.5]];portConstraint=eastwest;rotatable=0;whiteSpace=wrap;html=1;" parent="rthREr-rMwXgmIOKMFvC-21" vertex="1">
          <mxGeometry y="60" width="140" height="30" as="geometry" />
        </mxCell>
        <mxCell id="rthREr-rMwXgmIOKMFvC-22" value="id_orientador" style="text;strokeColor=none;fillColor=none;align=left;verticalAlign=middle;spacingLeft=4;spacingRight=4;overflow=hidden;points=[[0,0.5],[1,0.5]];portConstraint=eastwest;rotatable=0;whiteSpace=wrap;html=1;" parent="rthREr-rMwXgmIOKMFvC-21" vertex="1">
          <mxGeometry y="90" width="140" height="30" as="geometry" />
        </mxCell>
        <mxCell id="rthREr-rMwXgmIOKMFvC-31" value="senha" style="text;strokeColor=none;fillColor=none;align=left;verticalAlign=middle;spacingLeft=4;spacingRight=4;overflow=hidden;points=[[0,0.5],[1,0.5]];portConstraint=eastwest;rotatable=0;whiteSpace=wrap;html=1;" parent="rthREr-rMwXgmIOKMFvC-21" vertex="1">
          <mxGeometry y="120" width="140" height="30" as="geometry" />
        </mxCell>
        <mxCell id="89KXkux1pFZ6nRGSHGBm-1" value="&amp;nbsp;projetos_id" style="text;html=1;align=left;verticalAlign=middle;resizable=0;points=[];autosize=1;strokeColor=none;fillColor=none;" parent="rthREr-rMwXgmIOKMFvC-21" vertex="1">
          <mxGeometry y="150" width="140" height="30" as="geometry" />
        </mxCell>
        <mxCell id="89KXkux1pFZ6nRGSHGBm-10" value="favoritos" style="text;whiteSpace=wrap;html=1;" parent="rthREr-rMwXgmIOKMFvC-21" vertex="1">
          <mxGeometry y="180" width="140" height="40" as="geometry" />
        </mxCell>
        <mxCell id="rthREr-rMwXgmIOKMFvC-45" value="&lt;b&gt;Relacionamentos&lt;/b&gt;&lt;div&gt;&lt;br&gt;&lt;/div&gt;&lt;div&gt;&lt;table&gt;&lt;tbody&gt;&lt;tr&gt;&lt;td&gt;&lt;strong data-end=&quot;1369&quot; data-start=&quot;1346&quot;&gt;Aluno 1:N Inscrição&lt;/strong&gt;&lt;/td&gt;&lt;/tr&gt;&lt;/tbody&gt;&lt;/table&gt;&lt;br&gt;&lt;table&gt;&lt;tbody&gt;&lt;tr&gt;&lt;td&gt;&lt;table&gt;&lt;tbody&gt;&lt;tr&gt;&lt;td&gt;&lt;strong data-end=&quot;1536&quot; data-start=&quot;1511&quot;&gt;Projeto 1:N Inscrição&lt;br&gt;&lt;br&gt;&lt;/strong&gt;&lt;/td&gt;&lt;/tr&gt;&lt;/tbody&gt;&lt;/table&gt;&lt;table&gt;&lt;tbody&gt;&lt;tr&gt;&lt;td&gt;&lt;table&gt;&lt;tbody&gt;&lt;tr&gt;&lt;td&gt;&lt;strong data-end=&quot;1699&quot; data-start=&quot;1673&quot;&gt;Orientador 1:N Projeto&lt;br&gt;&lt;br&gt;&lt;/strong&gt;&lt;/td&gt;&lt;/tr&gt;&lt;/tbody&gt;&lt;/table&gt;&lt;table&gt;&lt;tbody&gt;&lt;tr&gt;&lt;td&gt;&lt;table&gt;&lt;tbody&gt;&lt;tr&gt;&lt;td&gt;&lt;strong data-end=&quot;1845&quot; data-start=&quot;1823&quot;&gt;Projeto 1:N Tarefa&lt;br&gt;&lt;br&gt;&lt;/strong&gt;&lt;/td&gt;&lt;/tr&gt;&lt;/tbody&gt;&lt;/table&gt;&lt;table&gt;&lt;tbody&gt;&lt;tr&gt;&lt;td&gt;&lt;table&gt;&lt;tbody&gt;&lt;tr&gt;&lt;td&gt;&lt;strong data-end=&quot;1982&quot; data-start=&quot;1963&quot;&gt;Tarefa 1:N Nota&lt;br&gt;&lt;br&gt;&lt;/strong&gt;&lt;/td&gt;&lt;/tr&gt;&lt;/tbody&gt;&lt;/table&gt;&lt;table&gt;&lt;tbody&gt;&lt;tr&gt;&lt;td&gt;&lt;table&gt;&lt;tbody&gt;&lt;tr&gt;&lt;td&gt;&lt;strong data-end=&quot;2147&quot; data-start=&quot;2129&quot;&gt;Aluno 1:N Nota&lt;/strong&gt;&lt;/td&gt;&lt;/tr&gt;&lt;/tbody&gt;&lt;/table&gt;&lt;table&gt;&lt;tbody&gt;&lt;tr&gt;&lt;td&gt;&lt;/td&gt;&lt;/tr&gt;&lt;/tbody&gt;&lt;/table&gt;&lt;/td&gt;&lt;/tr&gt;&lt;/tbody&gt;&lt;/table&gt;&lt;/td&gt;&lt;/tr&gt;&lt;/tbody&gt;&lt;/table&gt;&lt;/td&gt;&lt;/tr&gt;&lt;/tbody&gt;&lt;/table&gt;&lt;/td&gt;&lt;/tr&gt;&lt;/tbody&gt;&lt;/table&gt;&lt;/td&gt;&lt;/tr&gt;&lt;/tbody&gt;&lt;/table&gt;&lt;/div&gt;" style="text;html=1;align=center;verticalAlign=middle;resizable=0;points=[];autosize=1;strokeColor=none;fillColor=none;" parent="1" vertex="1">
          <mxGeometry x="900" y="310" width="170" height="260" as="geometry" />
        </mxCell>
        <mxCell id="rthREr-rMwXgmIOKMFvC-46" value="&lt;b&gt;Restrições&lt;/b&gt;&lt;div&gt;&lt;b&gt;&lt;br&gt;&lt;/b&gt;&lt;/div&gt;&lt;div&gt;Um aluno pode se inscrever em vários projetos. &lt;br&gt;&lt;strong data-end=&quot;1446&quot; data-start=&quot;1433&quot;&gt;Restrição&lt;/strong&gt;: só pode se inscrever em projetos da &lt;strong data-end=&quot;1505&quot; data-start=&quot;1484&quot;&gt;mesma instituição&lt;/strong&gt;.&lt;/div&gt;&lt;div&gt;&lt;b&gt;&lt;br&gt;&lt;/b&gt;&lt;/div&gt;&lt;div&gt;Um projeto pode ter várias inscrições. &lt;br&gt;&lt;strong data-end=&quot;1603&quot; data-start=&quot;1590&quot;&gt;Restrição&lt;/strong&gt;: número de inscritos não pode ultrapassar o &lt;strong data-end=&quot;1667&quot; data-start=&quot;1648&quot;&gt;limite de vagas&lt;/strong&gt;.&lt;/div&gt;&lt;div&gt;&lt;br&gt;&lt;/div&gt;&lt;div&gt;&lt;br&gt;&lt;/div&gt;&lt;div&gt;Um orientador pode criar vários projetos. &lt;br&gt;&lt;strong data-end=&quot;1768&quot; data-start=&quot;1755&quot;&gt;Restrição&lt;/strong&gt;: cada projeto pertence a &lt;strong data-end=&quot;1817&quot; data-start=&quot;1794&quot;&gt;um único orientador&lt;/strong&gt;.&lt;/div&gt;&lt;div&gt;&lt;br&gt;&lt;/div&gt;&lt;div&gt;&lt;br&gt;&lt;/div&gt;&lt;div&gt;Um projeto pode ter várias tarefas. &lt;br&gt;&lt;strong data-end=&quot;1912&quot; data-start=&quot;1899&quot;&gt;Restrição&lt;/strong&gt;: cada tarefa pertence a &lt;strong data-end=&quot;1957&quot; data-start=&quot;1937&quot;&gt;um único projeto&lt;/strong&gt;.&lt;/div&gt;&lt;div&gt;&lt;br&gt;&lt;/div&gt;&lt;div&gt;&lt;br&gt;&lt;/div&gt;&lt;div&gt;Cada tarefa pode ter várias notas (uma por aluno). &lt;br&gt;&lt;strong data-end=&quot;2067&quot; data-start=&quot;2054&quot;&gt;Restrição&lt;/strong&gt;: um aluno só recebe nota se estiver inscrito no projeto.&lt;/div&gt;&lt;div&gt;&lt;br&gt;&lt;/div&gt;&lt;div&gt;&lt;br&gt;&lt;/div&gt;&lt;div&gt;Um aluno pode receber notas de várias tarefas. &lt;br&gt;&lt;strong data-end=&quot;2229&quot; data-start=&quot;2216&quot;&gt;Restrição&lt;/strong&gt;: nota só é atribuída se ele tiver enviado a atividade.&lt;/div&gt;&lt;div&gt;&lt;br&gt;&lt;/div&gt;&lt;div&gt;&lt;br&gt;&lt;/div&gt;&lt;div&gt;&lt;br&gt;&lt;/div&gt;&lt;div&gt;&lt;br&gt;&lt;/div&gt;&lt;div&gt;&lt;br&gt;&lt;/div&gt;&lt;div&gt;&lt;br&gt;&lt;/div&gt;&lt;div&gt;&lt;br&gt;&lt;/div&gt;&lt;div&gt;&lt;br&gt;&lt;/div&gt;&lt;div&gt;&lt;br&gt;&lt;/div&gt;&lt;div&gt;&lt;br&gt;&lt;/div&gt;&lt;div&gt;&lt;br&gt;&lt;/div&gt;&lt;div&gt;&lt;br&gt;&lt;/div&gt;&lt;div&gt;&lt;br&gt;&lt;/div&gt;&lt;div&gt;&lt;br&gt;&lt;/div&gt;&lt;div&gt;&lt;br&gt;&lt;/div&gt;&lt;div&gt;&lt;br&gt;&lt;/div&gt;&lt;div&gt;&lt;br&gt;&lt;/div&gt;&lt;div&gt;&lt;br&gt;&lt;/div&gt;&lt;div&gt;&lt;br&gt;&lt;/div&gt;&lt;div&gt;&lt;br&gt;&lt;/div&gt;&lt;div&gt;&lt;br&gt;&lt;/div&gt;&lt;div&gt;&lt;br&gt;&lt;/div&gt;&lt;div&gt;&lt;br&gt;&lt;/div&gt;&lt;div&gt;&lt;br&gt;&lt;/div&gt;&lt;div&gt;&lt;br&gt;&lt;/div&gt;&lt;div&gt;&lt;br&gt;&lt;/div&gt;&lt;div&gt;&lt;br&gt;&lt;/div&gt;&lt;div&gt;&lt;br&gt;&lt;/div&gt;&lt;div&gt;&lt;br&gt;&lt;/div&gt;&lt;div&gt;&lt;br&gt;&lt;/div&gt;&lt;div&gt;&lt;br&gt;&lt;/div&gt;&lt;div&gt;&lt;br&gt;&lt;/div&gt;&lt;div&gt;&lt;br&gt;&lt;/div&gt;" style="text;html=1;align=center;verticalAlign=middle;resizable=0;points=[];autosize=1;strokeColor=none;fillColor=none;" parent="1" vertex="1">
          <mxGeometry x="1150" y="240" width="410" height="820" as="geometry" />
        </mxCell>
        <mxCell id="89KXkux1pFZ6nRGSHGBm-18" value="Curso_Graduacao" style="swimlane;fontStyle=0;childLayout=stackLayout;horizontal=1;startSize=30;horizontalStack=0;resizeParent=1;resizeParentMax=0;resizeLast=0;collapsible=1;marginBottom=0;whiteSpace=wrap;html=1;fillColor=#fff2cc;strokeColor=#d6b656;" parent="1" vertex="1">
          <mxGeometry x="30" y="470" width="140" height="90" as="geometry" />
        </mxCell>
        <mxCell id="89KXkux1pFZ6nRGSHGBm-19" value="nome" style="text;strokeColor=none;fillColor=none;align=left;verticalAlign=middle;spacingLeft=4;spacingRight=4;overflow=hidden;points=[[0,0.5],[1,0.5]];portConstraint=eastwest;rotatable=0;whiteSpace=wrap;html=1;" parent="89KXkux1pFZ6nRGSHGBm-18" vertex="1">
          <mxGeometry y="30" width="140" height="30" as="geometry" />
        </mxCell>
        <mxCell id="89KXkux1pFZ6nRGSHGBm-20" value="id" style="text;strokeColor=none;fillColor=none;align=left;verticalAlign=middle;spacingLeft=4;spacingRight=4;overflow=hidden;points=[[0,0.5],[1,0.5]];portConstraint=eastwest;rotatable=0;whiteSpace=wrap;html=1;" parent="89KXkux1pFZ6nRGSHGBm-18" vertex="1">
          <mxGeometry y="60" width="140" height="30" as="geometry" />
        </mxCell>
      </root>
    </mxGraphModel>
  </diagram>
  <diagram id="Lzm1UWEy6NEv-7w-3llC" name="DER">
    <mxGraphModel dx="2539" dy="1897" grid="1" gridSize="10" guides="1" tooltips="1" connect="1" arrows="1" fold="1" page="1" pageScale="1" pageWidth="827" pageHeight="1169" math="0" shadow="0">
      <root>
        <mxCell id="0" />
        <mxCell id="1" parent="0" />
        <mxCell id="SfpXLWeZ3eAWJsOVhAZe-1" value="ALUNO" style="whiteSpace=wrap;html=1;align=center;" parent="1" vertex="1">
          <mxGeometry x="230" y="87" width="100" height="40" as="geometry" />
        </mxCell>
        <mxCell id="SfpXLWeZ3eAWJsOVhAZe-2" value="matricula&amp;nbsp;" style="shape=rhombus;perimeter=rhombusPerimeter;whiteSpace=wrap;html=1;align=center;" parent="1" vertex="1">
          <mxGeometry x="523" y="205" width="100" height="50" as="geometry" />
        </mxCell>
        <mxCell id="SfpXLWeZ3eAWJsOVhAZe-3" value="nome" style="ellipse;whiteSpace=wrap;html=1;align=center;" parent="1" vertex="1">
          <mxGeometry x="150" y="17" width="70" height="30" as="geometry" />
        </mxCell>
        <mxCell id="SfpXLWeZ3eAWJsOVhAZe-4" value="" style="endArrow=none;html=1;rounded=0;exitX=0.5;exitY=1;exitDx=0;exitDy=0;entryX=0.5;entryY=0;entryDx=0;entryDy=0;" parent="1" source="SfpXLWeZ3eAWJsOVhAZe-3" target="SfpXLWeZ3eAWJsOVhAZe-1" edge="1">
          <mxGeometry relative="1" as="geometry">
            <mxPoint x="490" y="147" as="sourcePoint" />
            <mxPoint x="650" y="147" as="targetPoint" />
          </mxGeometry>
        </mxCell>
        <mxCell id="SfpXLWeZ3eAWJsOVhAZe-5" value="email" style="ellipse;whiteSpace=wrap;html=1;align=center;" parent="1" vertex="1">
          <mxGeometry x="180" y="-23" width="70" height="30" as="geometry" />
        </mxCell>
        <mxCell id="SfpXLWeZ3eAWJsOVhAZe-6" value="" style="endArrow=none;html=1;rounded=0;exitX=0.5;exitY=0;exitDx=0;exitDy=0;entryX=0.5;entryY=1;entryDx=0;entryDy=0;" parent="1" source="SfpXLWeZ3eAWJsOVhAZe-1" target="SfpXLWeZ3eAWJsOVhAZe-5" edge="1">
          <mxGeometry relative="1" as="geometry">
            <mxPoint x="490" y="147" as="sourcePoint" />
            <mxPoint x="650" y="147" as="targetPoint" />
          </mxGeometry>
        </mxCell>
        <mxCell id="SfpXLWeZ3eAWJsOVhAZe-7" value="id" style="ellipse;whiteSpace=wrap;html=1;align=center;fontStyle=4;" parent="1" vertex="1">
          <mxGeometry x="245" y="7" width="70" height="30" as="geometry" />
        </mxCell>
        <mxCell id="SfpXLWeZ3eAWJsOVhAZe-8" value="" style="endArrow=none;html=1;rounded=0;exitX=0.5;exitY=0;exitDx=0;exitDy=0;entryX=0.5;entryY=1;entryDx=0;entryDy=0;" parent="1" source="SfpXLWeZ3eAWJsOVhAZe-1" target="SfpXLWeZ3eAWJsOVhAZe-7" edge="1">
          <mxGeometry relative="1" as="geometry">
            <mxPoint x="490" y="147" as="sourcePoint" />
            <mxPoint x="650" y="147" as="targetPoint" />
          </mxGeometry>
        </mxCell>
        <mxCell id="SfpXLWeZ3eAWJsOVhAZe-9" value="curso_graduação_atual" style="ellipse;whiteSpace=wrap;html=1;align=center;" parent="1" vertex="1">
          <mxGeometry x="350" y="10" width="150" height="50" as="geometry" />
        </mxCell>
        <mxCell id="SfpXLWeZ3eAWJsOVhAZe-10" value="" style="endArrow=none;html=1;rounded=0;exitX=0.5;exitY=0;exitDx=0;exitDy=0;entryX=0.5;entryY=1;entryDx=0;entryDy=0;" parent="1" source="SfpXLWeZ3eAWJsOVhAZe-1" target="SfpXLWeZ3eAWJsOVhAZe-9" edge="1">
          <mxGeometry relative="1" as="geometry">
            <mxPoint x="460" y="147" as="sourcePoint" />
            <mxPoint x="620" y="147" as="targetPoint" />
          </mxGeometry>
        </mxCell>
        <mxCell id="SfpXLWeZ3eAWJsOVhAZe-11" value="senha" style="ellipse;whiteSpace=wrap;html=1;align=center;" parent="1" vertex="1">
          <mxGeometry x="315" y="-23" width="70" height="30" as="geometry" />
        </mxCell>
        <mxCell id="SfpXLWeZ3eAWJsOVhAZe-12" value="" style="endArrow=none;html=1;rounded=0;exitX=0.5;exitY=0;exitDx=0;exitDy=0;entryX=0.5;entryY=1;entryDx=0;entryDy=0;" parent="1" source="SfpXLWeZ3eAWJsOVhAZe-1" target="SfpXLWeZ3eAWJsOVhAZe-11" edge="1">
          <mxGeometry relative="1" as="geometry">
            <mxPoint x="460" y="147" as="sourcePoint" />
            <mxPoint x="620" y="147" as="targetPoint" />
          </mxGeometry>
        </mxCell>
        <mxCell id="SfpXLWeZ3eAWJsOVhAZe-14" value="PROJETO" style="whiteSpace=wrap;html=1;align=center;" parent="1" vertex="1">
          <mxGeometry x="758" y="310" width="100" height="40" as="geometry" />
        </mxCell>
        <mxCell id="SfpXLWeZ3eAWJsOVhAZe-15" value="nome" style="ellipse;whiteSpace=wrap;html=1;align=center;" parent="1" vertex="1">
          <mxGeometry x="728" y="240" width="70" height="30" as="geometry" />
        </mxCell>
        <mxCell id="SfpXLWeZ3eAWJsOVhAZe-16" value="curso" style="ellipse;whiteSpace=wrap;html=1;align=center;" parent="1" vertex="1">
          <mxGeometry x="820" y="240" width="70" height="30" as="geometry" />
        </mxCell>
        <mxCell id="SfpXLWeZ3eAWJsOVhAZe-17" value="id" style="ellipse;whiteSpace=wrap;html=1;align=center;fontStyle=4;" parent="1" vertex="1">
          <mxGeometry x="728" y="380" width="70" height="30" as="geometry" />
        </mxCell>
        <mxCell id="SfpXLWeZ3eAWJsOVhAZe-18" value="ORIENTADOR" style="whiteSpace=wrap;html=1;align=center;" parent="1" vertex="1">
          <mxGeometry x="230" y="487" width="100" height="40" as="geometry" />
        </mxCell>
        <mxCell id="SfpXLWeZ3eAWJsOVhAZe-19" value="nome" style="ellipse;whiteSpace=wrap;html=1;align=center;" parent="1" vertex="1">
          <mxGeometry x="160" y="592" width="70" height="30" as="geometry" />
        </mxCell>
        <mxCell id="SfpXLWeZ3eAWJsOVhAZe-20" value="email" style="ellipse;whiteSpace=wrap;html=1;align=center;" parent="1" vertex="1">
          <mxGeometry x="140" y="552" width="70" height="30" as="geometry" />
        </mxCell>
        <mxCell id="SfpXLWeZ3eAWJsOVhAZe-21" value="id" style="ellipse;whiteSpace=wrap;html=1;align=center;fontStyle=4;" parent="1" vertex="1">
          <mxGeometry x="245" y="582" width="70" height="30" as="geometry" />
        </mxCell>
        <mxCell id="SfpXLWeZ3eAWJsOVhAZe-23" value="senha" style="ellipse;whiteSpace=wrap;html=1;align=center;" parent="1" vertex="1">
          <mxGeometry x="350" y="552" width="70" height="30" as="geometry" />
        </mxCell>
        <mxCell id="SfpXLWeZ3eAWJsOVhAZe-24" value="" style="endArrow=none;html=1;rounded=0;exitX=0.5;exitY=1;exitDx=0;exitDy=0;entryX=0.5;entryY=0;entryDx=0;entryDy=0;" parent="1" source="SfpXLWeZ3eAWJsOVhAZe-18" target="SfpXLWeZ3eAWJsOVhAZe-21" edge="1">
          <mxGeometry relative="1" as="geometry">
            <mxPoint x="280" y="542" as="sourcePoint" />
            <mxPoint x="620" y="472" as="targetPoint" />
          </mxGeometry>
        </mxCell>
        <mxCell id="SfpXLWeZ3eAWJsOVhAZe-25" value="" style="endArrow=none;html=1;rounded=0;exitX=0.5;exitY=1;exitDx=0;exitDy=0;entryX=0.5;entryY=0;entryDx=0;entryDy=0;" parent="1" source="SfpXLWeZ3eAWJsOVhAZe-18" target="SfpXLWeZ3eAWJsOVhAZe-20" edge="1">
          <mxGeometry relative="1" as="geometry">
            <mxPoint x="280" y="542" as="sourcePoint" />
            <mxPoint x="620" y="472" as="targetPoint" />
          </mxGeometry>
        </mxCell>
        <mxCell id="SfpXLWeZ3eAWJsOVhAZe-26" value="" style="endArrow=none;html=1;rounded=0;exitX=0.5;exitY=1;exitDx=0;exitDy=0;entryX=0.5;entryY=0;entryDx=0;entryDy=0;" parent="1" source="SfpXLWeZ3eAWJsOVhAZe-18" target="SfpXLWeZ3eAWJsOVhAZe-23" edge="1">
          <mxGeometry relative="1" as="geometry">
            <mxPoint x="460" y="457" as="sourcePoint" />
            <mxPoint x="620" y="457" as="targetPoint" />
          </mxGeometry>
        </mxCell>
        <mxCell id="SfpXLWeZ3eAWJsOVhAZe-27" value="" style="endArrow=none;html=1;rounded=0;exitX=0.5;exitY=1;exitDx=0;exitDy=0;entryX=0.5;entryY=0;entryDx=0;entryDy=0;" parent="1" source="SfpXLWeZ3eAWJsOVhAZe-18" target="SfpXLWeZ3eAWJsOVhAZe-19" edge="1">
          <mxGeometry relative="1" as="geometry">
            <mxPoint x="460" y="457" as="sourcePoint" />
            <mxPoint x="620" y="457" as="targetPoint" />
          </mxGeometry>
        </mxCell>
        <mxCell id="SfpXLWeZ3eAWJsOVhAZe-29" value="cria" style="shape=rhombus;perimeter=rhombusPerimeter;whiteSpace=wrap;html=1;align=center;" parent="1" vertex="1">
          <mxGeometry x="523" y="395" width="100" height="50" as="geometry" />
        </mxCell>
        <mxCell id="SfpXLWeZ3eAWJsOVhAZe-30" value="" style="endArrow=none;html=1;rounded=0;exitX=1;exitY=0.5;exitDx=0;exitDy=0;" parent="1" source="SfpXLWeZ3eAWJsOVhAZe-18" edge="1">
          <mxGeometry relative="1" as="geometry">
            <mxPoint x="460" y="370" as="sourcePoint" />
            <mxPoint x="420" y="507" as="targetPoint" />
          </mxGeometry>
        </mxCell>
        <mxCell id="SfpXLWeZ3eAWJsOVhAZe-31" value="" style="endArrow=none;html=1;rounded=0;exitX=0.5;exitY=1;exitDx=0;exitDy=0;entryX=0.5;entryY=0;entryDx=0;entryDy=0;" parent="1" source="SfpXLWeZ3eAWJsOVhAZe-14" target="SfpXLWeZ3eAWJsOVhAZe-17" edge="1">
          <mxGeometry relative="1" as="geometry">
            <mxPoint x="623" y="320" as="sourcePoint" />
            <mxPoint x="783" y="320" as="targetPoint" />
          </mxGeometry>
        </mxCell>
        <mxCell id="SfpXLWeZ3eAWJsOVhAZe-32" value="descrição" style="ellipse;whiteSpace=wrap;html=1;align=center;" parent="1" vertex="1">
          <mxGeometry x="820" y="381.25" width="70" height="30" as="geometry" />
        </mxCell>
        <mxCell id="SfpXLWeZ3eAWJsOVhAZe-33" value="" style="endArrow=none;html=1;rounded=0;exitX=0.5;exitY=1;exitDx=0;exitDy=0;entryX=0.5;entryY=0;entryDx=0;entryDy=0;" parent="1" source="SfpXLWeZ3eAWJsOVhAZe-14" target="SfpXLWeZ3eAWJsOVhAZe-32" edge="1">
          <mxGeometry relative="1" as="geometry">
            <mxPoint x="623" y="320" as="sourcePoint" />
            <mxPoint x="783" y="320" as="targetPoint" />
          </mxGeometry>
        </mxCell>
        <mxCell id="SfpXLWeZ3eAWJsOVhAZe-34" value="" style="endArrow=none;html=1;rounded=0;exitX=0.5;exitY=1;exitDx=0;exitDy=0;entryX=0.5;entryY=0;entryDx=0;entryDy=0;" parent="1" source="SfpXLWeZ3eAWJsOVhAZe-15" target="SfpXLWeZ3eAWJsOVhAZe-14" edge="1">
          <mxGeometry relative="1" as="geometry">
            <mxPoint x="588" y="395" as="sourcePoint" />
            <mxPoint x="748" y="395" as="targetPoint" />
          </mxGeometry>
        </mxCell>
        <mxCell id="SfpXLWeZ3eAWJsOVhAZe-35" value="" style="endArrow=none;html=1;rounded=0;exitX=0.5;exitY=1;exitDx=0;exitDy=0;entryX=0.5;entryY=0;entryDx=0;entryDy=0;" parent="1" source="SfpXLWeZ3eAWJsOVhAZe-16" target="SfpXLWeZ3eAWJsOVhAZe-14" edge="1">
          <mxGeometry relative="1" as="geometry">
            <mxPoint x="588" y="395" as="sourcePoint" />
            <mxPoint x="748" y="395" as="targetPoint" />
          </mxGeometry>
        </mxCell>
        <mxCell id="SfpXLWeZ3eAWJsOVhAZe-36" value="" style="endArrow=none;html=1;rounded=0;exitX=1;exitY=0.5;exitDx=0;exitDy=0;" parent="1" source="SfpXLWeZ3eAWJsOVhAZe-29" edge="1">
          <mxGeometry relative="1" as="geometry">
            <mxPoint x="628" y="420" as="sourcePoint" />
            <mxPoint x="678" y="420" as="targetPoint" />
          </mxGeometry>
        </mxCell>
        <mxCell id="SfpXLWeZ3eAWJsOVhAZe-37" value="" style="endArrow=none;html=1;rounded=0;" parent="1" edge="1">
          <mxGeometry relative="1" as="geometry">
            <mxPoint x="678" y="420" as="sourcePoint" />
            <mxPoint x="678" y="340" as="targetPoint" />
          </mxGeometry>
        </mxCell>
        <mxCell id="SfpXLWeZ3eAWJsOVhAZe-38" value="" style="endArrow=none;html=1;rounded=0;entryX=0;entryY=0.75;entryDx=0;entryDy=0;" parent="1" target="SfpXLWeZ3eAWJsOVhAZe-14" edge="1">
          <mxGeometry relative="1" as="geometry">
            <mxPoint x="678" y="340" as="sourcePoint" />
            <mxPoint x="758" y="370" as="targetPoint" />
          </mxGeometry>
        </mxCell>
        <mxCell id="SfpXLWeZ3eAWJsOVhAZe-39" value="" style="endArrow=none;html=1;rounded=0;exitX=1;exitY=0.5;exitDx=0;exitDy=0;" parent="1" source="SfpXLWeZ3eAWJsOVhAZe-2" edge="1">
          <mxGeometry relative="1" as="geometry">
            <mxPoint x="598" y="370" as="sourcePoint" />
            <mxPoint x="678" y="230" as="targetPoint" />
          </mxGeometry>
        </mxCell>
        <mxCell id="SfpXLWeZ3eAWJsOVhAZe-40" value="" style="endArrow=none;html=1;rounded=0;" parent="1" edge="1">
          <mxGeometry relative="1" as="geometry">
            <mxPoint x="678" y="230" as="sourcePoint" />
            <mxPoint x="678" y="320" as="targetPoint" />
          </mxGeometry>
        </mxCell>
        <mxCell id="SfpXLWeZ3eAWJsOVhAZe-41" value="" style="endArrow=none;html=1;rounded=0;entryX=0;entryY=0.25;entryDx=0;entryDy=0;" parent="1" target="SfpXLWeZ3eAWJsOVhAZe-14" edge="1">
          <mxGeometry relative="1" as="geometry">
            <mxPoint x="678" y="320" as="sourcePoint" />
            <mxPoint x="758" y="370" as="targetPoint" />
          </mxGeometry>
        </mxCell>
        <mxCell id="SfpXLWeZ3eAWJsOVhAZe-42" value="possui" style="shape=rhombus;perimeter=rhombusPerimeter;whiteSpace=wrap;html=1;align=center;" parent="1" vertex="1">
          <mxGeometry x="230" y="380" width="100" height="50" as="geometry" />
        </mxCell>
        <mxCell id="SfpXLWeZ3eAWJsOVhAZe-43" value="" style="endArrow=none;html=1;rounded=0;exitX=0.5;exitY=0;exitDx=0;exitDy=0;entryX=0.5;entryY=1;entryDx=0;entryDy=0;" parent="1" source="SfpXLWeZ3eAWJsOVhAZe-18" target="SfpXLWeZ3eAWJsOVhAZe-42" edge="1">
          <mxGeometry relative="1" as="geometry">
            <mxPoint x="460" y="370" as="sourcePoint" />
            <mxPoint x="620" y="370" as="targetPoint" />
          </mxGeometry>
        </mxCell>
        <mxCell id="SfpXLWeZ3eAWJsOVhAZe-44" value="TURMA" style="whiteSpace=wrap;html=1;align=center;" parent="1" vertex="1">
          <mxGeometry x="230" y="290" width="100" height="40" as="geometry" />
        </mxCell>
        <mxCell id="SfpXLWeZ3eAWJsOVhAZe-45" value="" style="endArrow=none;html=1;rounded=0;exitX=0.5;exitY=0;exitDx=0;exitDy=0;entryX=0.5;entryY=1;entryDx=0;entryDy=0;" parent="1" source="SfpXLWeZ3eAWJsOVhAZe-42" target="SfpXLWeZ3eAWJsOVhAZe-44" edge="1">
          <mxGeometry relative="1" as="geometry">
            <mxPoint x="460" y="270" as="sourcePoint" />
            <mxPoint x="620" y="270" as="targetPoint" />
          </mxGeometry>
        </mxCell>
        <mxCell id="SfpXLWeZ3eAWJsOVhAZe-46" value="possui" style="shape=rhombus;perimeter=rhombusPerimeter;whiteSpace=wrap;html=1;align=center;" parent="1" vertex="1">
          <mxGeometry x="230" y="190" width="100" height="50" as="geometry" />
        </mxCell>
        <mxCell id="SfpXLWeZ3eAWJsOVhAZe-47" value="" style="endArrow=none;html=1;rounded=0;exitX=0.5;exitY=0;exitDx=0;exitDy=0;entryX=0.5;entryY=1;entryDx=0;entryDy=0;" parent="1" source="SfpXLWeZ3eAWJsOVhAZe-44" target="SfpXLWeZ3eAWJsOVhAZe-46" edge="1">
          <mxGeometry relative="1" as="geometry">
            <mxPoint x="450" y="270" as="sourcePoint" />
            <mxPoint x="610" y="270" as="targetPoint" />
          </mxGeometry>
        </mxCell>
        <mxCell id="SfpXLWeZ3eAWJsOVhAZe-48" value="" style="endArrow=none;html=1;rounded=0;exitX=0.5;exitY=1;exitDx=0;exitDy=0;entryX=0.5;entryY=0;entryDx=0;entryDy=0;" parent="1" source="SfpXLWeZ3eAWJsOVhAZe-1" target="SfpXLWeZ3eAWJsOVhAZe-46" edge="1">
          <mxGeometry relative="1" as="geometry">
            <mxPoint x="450" y="270" as="sourcePoint" />
            <mxPoint x="610" y="270" as="targetPoint" />
          </mxGeometry>
        </mxCell>
        <mxCell id="SfpXLWeZ3eAWJsOVhAZe-49" value="" style="endArrow=none;html=1;rounded=0;entryX=0;entryY=0.5;entryDx=0;entryDy=0;" parent="1" target="SfpXLWeZ3eAWJsOVhAZe-2" edge="1">
          <mxGeometry relative="1" as="geometry">
            <mxPoint x="420" y="230" as="sourcePoint" />
            <mxPoint x="610" y="270" as="targetPoint" />
          </mxGeometry>
        </mxCell>
        <mxCell id="SfpXLWeZ3eAWJsOVhAZe-50" value="" style="endArrow=none;html=1;rounded=0;" parent="1" edge="1">
          <mxGeometry relative="1" as="geometry">
            <mxPoint x="420" y="110" as="sourcePoint" />
            <mxPoint x="420" y="230" as="targetPoint" />
          </mxGeometry>
        </mxCell>
        <mxCell id="SfpXLWeZ3eAWJsOVhAZe-51" value="" style="endArrow=none;html=1;rounded=0;entryX=0;entryY=0.5;entryDx=0;entryDy=0;" parent="1" target="SfpXLWeZ3eAWJsOVhAZe-29" edge="1">
          <mxGeometry relative="1" as="geometry">
            <mxPoint x="420" y="420" as="sourcePoint" />
            <mxPoint x="550" y="450" as="targetPoint" />
          </mxGeometry>
        </mxCell>
        <mxCell id="SfpXLWeZ3eAWJsOVhAZe-52" value="" style="endArrow=none;html=1;rounded=0;" parent="1" edge="1">
          <mxGeometry relative="1" as="geometry">
            <mxPoint x="420" y="420" as="sourcePoint" />
            <mxPoint x="420" y="510" as="targetPoint" />
          </mxGeometry>
        </mxCell>
        <mxCell id="SfpXLWeZ3eAWJsOVhAZe-53" value="" style="endArrow=none;html=1;rounded=0;exitX=1;exitY=0.5;exitDx=0;exitDy=0;entryX=0;entryY=0.5;entryDx=0;entryDy=0;" parent="1" source="SfpXLWeZ3eAWJsOVhAZe-14" edge="1">
          <mxGeometry relative="1" as="geometry">
            <mxPoint x="570" y="430" as="sourcePoint" />
            <mxPoint x="910" y="330.0000000000002" as="targetPoint" />
          </mxGeometry>
        </mxCell>
        <mxCell id="SfpXLWeZ3eAWJsOVhAZe-54" value="possui" style="shape=rhombus;double=1;perimeter=rhombusPerimeter;whiteSpace=wrap;html=1;align=center;" parent="1" vertex="1">
          <mxGeometry x="910" y="300" width="120" height="60" as="geometry" />
        </mxCell>
        <mxCell id="SfpXLWeZ3eAWJsOVhAZe-55" value="" style="endArrow=none;html=1;rounded=0;exitX=1;exitY=0.5;exitDx=0;exitDy=0;entryX=0;entryY=0.5;entryDx=0;entryDy=0;" parent="1" source="SfpXLWeZ3eAWJsOVhAZe-54" target="SfpXLWeZ3eAWJsOVhAZe-56" edge="1">
          <mxGeometry relative="1" as="geometry">
            <mxPoint x="730" y="430" as="sourcePoint" />
            <mxPoint x="1090" y="330" as="targetPoint" />
          </mxGeometry>
        </mxCell>
        <mxCell id="SfpXLWeZ3eAWJsOVhAZe-56" value="TAREFA" style="shape=ext;margin=3;double=1;whiteSpace=wrap;html=1;align=center;" parent="1" vertex="1">
          <mxGeometry x="1080" y="310" width="100" height="40" as="geometry" />
        </mxCell>
        <mxCell id="SfpXLWeZ3eAWJsOVhAZe-57" value="&lt;span style=&quot;border-bottom: 1px dotted&quot;&gt;id&lt;/span&gt;" style="ellipse;whiteSpace=wrap;html=1;align=center;" parent="1" vertex="1">
          <mxGeometry x="1140" y="380" width="70" height="35" as="geometry" />
        </mxCell>
        <mxCell id="SfpXLWeZ3eAWJsOVhAZe-59" value="id" style="ellipse;whiteSpace=wrap;html=1;align=center;fontStyle=4;" parent="1" vertex="1">
          <mxGeometry x="130" y="295" width="70" height="30" as="geometry" />
        </mxCell>
        <mxCell id="SfpXLWeZ3eAWJsOVhAZe-60" value="nota" style="ellipse;whiteSpace=wrap;html=1;align=center;" parent="1" vertex="1">
          <mxGeometry x="1050" y="382.5" width="60" height="27.5" as="geometry" />
        </mxCell>
        <mxCell id="SfpXLWeZ3eAWJsOVhAZe-61" value="" style="endArrow=none;html=1;rounded=0;exitX=0.5;exitY=1;exitDx=0;exitDy=0;entryX=0.5;entryY=0;entryDx=0;entryDy=0;" parent="1" source="SfpXLWeZ3eAWJsOVhAZe-56" target="SfpXLWeZ3eAWJsOVhAZe-60" edge="1">
          <mxGeometry relative="1" as="geometry">
            <mxPoint x="1050" y="300" as="sourcePoint" />
            <mxPoint x="1210" y="300" as="targetPoint" />
          </mxGeometry>
        </mxCell>
        <mxCell id="SfpXLWeZ3eAWJsOVhAZe-62" value="" style="endArrow=none;html=1;rounded=0;exitX=0.5;exitY=0;exitDx=0;exitDy=0;entryX=0.5;entryY=1;entryDx=0;entryDy=0;" parent="1" source="SfpXLWeZ3eAWJsOVhAZe-57" target="SfpXLWeZ3eAWJsOVhAZe-56" edge="1">
          <mxGeometry relative="1" as="geometry">
            <mxPoint x="1050" y="300" as="sourcePoint" />
            <mxPoint x="1210" y="300" as="targetPoint" />
          </mxGeometry>
        </mxCell>
        <mxCell id="SfpXLWeZ3eAWJsOVhAZe-63" value="" style="endArrow=none;html=1;rounded=0;exitX=0.5;exitY=0;exitDx=0;exitDy=0;" parent="1" source="SfpXLWeZ3eAWJsOVhAZe-56" edge="1">
          <mxGeometry relative="1" as="geometry">
            <mxPoint x="1050" y="300" as="sourcePoint" />
            <mxPoint x="1130" y="270" as="targetPoint" />
          </mxGeometry>
        </mxCell>
        <mxCell id="SfpXLWeZ3eAWJsOVhAZe-73" value="" style="endArrow=none;html=1;rounded=0;exitX=1;exitY=0.75;exitDx=0;exitDy=0;entryX=0;entryY=0.5;entryDx=0;entryDy=0;" parent="1" source="SfpXLWeZ3eAWJsOVhAZe-18" target="SfpXLWeZ3eAWJsOVhAZe-74" edge="1">
          <mxGeometry relative="1" as="geometry">
            <mxPoint x="370" y="460" as="sourcePoint" />
            <mxPoint x="530" y="517" as="targetPoint" />
          </mxGeometry>
        </mxCell>
        <mxCell id="SfpXLWeZ3eAWJsOVhAZe-74" value="possui" style="shape=rhombus;perimeter=rhombusPerimeter;whiteSpace=wrap;html=1;align=center;" parent="1" vertex="1">
          <mxGeometry x="748" y="487" width="120" height="60" as="geometry" />
        </mxCell>
        <mxCell id="SfpXLWeZ3eAWJsOVhAZe-75" value="" style="endArrow=none;html=1;rounded=0;exitX=0.5;exitY=1;exitDx=0;exitDy=0;entryX=0.5;entryY=0;entryDx=0;entryDy=0;" parent="1" source="SfpXLWeZ3eAWJsOVhAZe-14" target="SfpXLWeZ3eAWJsOVhAZe-74" edge="1">
          <mxGeometry relative="1" as="geometry">
            <mxPoint x="660" y="470" as="sourcePoint" />
            <mxPoint x="808" y="470" as="targetPoint" />
          </mxGeometry>
        </mxCell>
        <mxCell id="SfpXLWeZ3eAWJsOVhAZe-76" value="" style="endArrow=none;html=1;rounded=0;exitX=1;exitY=0.25;exitDx=0;exitDy=0;" parent="1" source="SfpXLWeZ3eAWJsOVhAZe-1" target="SfpXLWeZ3eAWJsOVhAZe-77" edge="1">
          <mxGeometry relative="1" as="geometry">
            <mxPoint x="530" y="130" as="sourcePoint" />
            <mxPoint x="690" y="130" as="targetPoint" />
          </mxGeometry>
        </mxCell>
        <mxCell id="SfpXLWeZ3eAWJsOVhAZe-77" value="possui" style="shape=rhombus;perimeter=rhombusPerimeter;whiteSpace=wrap;html=1;align=center;" parent="1" vertex="1">
          <mxGeometry x="748" y="67" width="120" height="60" as="geometry" />
        </mxCell>
        <mxCell id="SfpXLWeZ3eAWJsOVhAZe-78" value="" style="endArrow=none;html=1;rounded=0;exitX=0.5;exitY=1;exitDx=0;exitDy=0;entryX=0.5;entryY=0;entryDx=0;entryDy=0;" parent="1" source="SfpXLWeZ3eAWJsOVhAZe-77" target="SfpXLWeZ3eAWJsOVhAZe-14" edge="1">
          <mxGeometry relative="1" as="geometry">
            <mxPoint x="640" y="160" as="sourcePoint" />
            <mxPoint x="800" y="160" as="targetPoint" />
          </mxGeometry>
        </mxCell>
        <mxCell id="SfpXLWeZ3eAWJsOVhAZe-87" value="" style="endArrow=none;html=1;rounded=0;exitX=1;exitY=0.5;exitDx=0;exitDy=0;entryX=0;entryY=0.5;entryDx=0;entryDy=0;" parent="1" source="SfpXLWeZ3eAWJsOVhAZe-59" target="SfpXLWeZ3eAWJsOVhAZe-44" edge="1">
          <mxGeometry relative="1" as="geometry">
            <mxPoint x="400" y="320" as="sourcePoint" />
            <mxPoint x="590" y="310" as="targetPoint" />
          </mxGeometry>
        </mxCell>
        <mxCell id="SfpXLWeZ3eAWJsOVhAZe-88" value="" style="endArrow=none;html=1;rounded=0;" parent="1" edge="1">
          <mxGeometry relative="1" as="geometry">
            <mxPoint x="330" y="110" as="sourcePoint" />
            <mxPoint x="420" y="110" as="targetPoint" />
          </mxGeometry>
        </mxCell>
        <mxCell id="SfpXLWeZ3eAWJsOVhAZe-90" value="" style="endArrow=none;html=1;rounded=0;" parent="1" edge="1">
          <mxGeometry relative="1" as="geometry">
            <mxPoint x="330" y="120" as="sourcePoint" />
            <mxPoint x="400" y="120" as="targetPoint" />
          </mxGeometry>
        </mxCell>
        <mxCell id="SfpXLWeZ3eAWJsOVhAZe-92" value="favorita" style="shape=rhombus;perimeter=rhombusPerimeter;whiteSpace=wrap;html=1;align=center;" parent="1" vertex="1">
          <mxGeometry x="523" y="305" width="100" height="50" as="geometry" />
        </mxCell>
        <mxCell id="SfpXLWeZ3eAWJsOVhAZe-93" value="" style="endArrow=none;html=1;rounded=0;" parent="1" edge="1">
          <mxGeometry relative="1" as="geometry">
            <mxPoint x="400" y="120" as="sourcePoint" />
            <mxPoint x="400" y="330" as="targetPoint" />
          </mxGeometry>
        </mxCell>
        <mxCell id="SfpXLWeZ3eAWJsOVhAZe-94" value="" style="endArrow=none;html=1;rounded=0;entryX=0;entryY=0.5;entryDx=0;entryDy=0;" parent="1" target="SfpXLWeZ3eAWJsOVhAZe-92" edge="1">
          <mxGeometry relative="1" as="geometry">
            <mxPoint x="400" y="330" as="sourcePoint" />
            <mxPoint x="580" y="300" as="targetPoint" />
          </mxGeometry>
        </mxCell>
        <mxCell id="SfpXLWeZ3eAWJsOVhAZe-95" value="" style="endArrow=none;html=1;rounded=0;exitX=1;exitY=0.5;exitDx=0;exitDy=0;entryX=0;entryY=0.5;entryDx=0;entryDy=0;" parent="1" source="SfpXLWeZ3eAWJsOVhAZe-92" target="SfpXLWeZ3eAWJsOVhAZe-14" edge="1">
          <mxGeometry relative="1" as="geometry">
            <mxPoint x="500" y="220" as="sourcePoint" />
            <mxPoint x="660" y="220" as="targetPoint" />
          </mxGeometry>
        </mxCell>
        <mxCell id="B8vBwYh-RYrdFawiuu-h-4" value="" style="endArrow=none;html=1;rounded=0;" parent="1" edge="1">
          <mxGeometry width="50" height="50" relative="1" as="geometry">
            <mxPoint x="940" y="410" as="sourcePoint" />
            <mxPoint x="860" y="350" as="targetPoint" />
          </mxGeometry>
        </mxCell>
        <mxCell id="B8vBwYh-RYrdFawiuu-h-5" value="numero_vagas" style="ellipse;whiteSpace=wrap;html=1;" parent="1" vertex="1">
          <mxGeometry x="900" y="410" width="100" height="40" as="geometry" />
        </mxCell>
        <mxCell id="B8vBwYh-RYrdFawiuu-h-7" value="data_inicial" style="ellipse;whiteSpace=wrap;html=1;" parent="1" vertex="1">
          <mxGeometry x="1090" y="240" width="80" height="30" as="geometry" />
        </mxCell>
        <mxCell id="B8vBwYh-RYrdFawiuu-h-8" value="" style="endArrow=none;html=1;rounded=0;" parent="1" edge="1">
          <mxGeometry width="50" height="50" relative="1" as="geometry">
            <mxPoint x="1180" y="335" as="sourcePoint" />
            <mxPoint x="1260" y="325" as="targetPoint" />
          </mxGeometry>
        </mxCell>
        <mxCell id="B8vBwYh-RYrdFawiuu-h-9" value="data_final" style="ellipse;whiteSpace=wrap;html=1;" parent="1" vertex="1">
          <mxGeometry x="1260" y="305" width="80" height="35" as="geometry" />
        </mxCell>
        <mxCell id="B8vBwYh-RYrdFawiuu-h-12" value="" style="endArrow=none;html=1;rounded=0;" parent="1" edge="1">
          <mxGeometry width="50" height="50" relative="1" as="geometry">
            <mxPoint x="1180" y="310" as="sourcePoint" />
            <mxPoint x="1230" y="260" as="targetPoint" />
          </mxGeometry>
        </mxCell>
        <mxCell id="B8vBwYh-RYrdFawiuu-h-13" value="descrição" style="ellipse;whiteSpace=wrap;html=1;" parent="1" vertex="1">
          <mxGeometry x="1220" y="240" width="70" height="30" as="geometry" />
        </mxCell>
        <mxCell id="NSWVSMQTn-rg3xyh7AuW-1" value="" style="endArrow=none;html=1;rounded=0;" parent="1" edge="1">
          <mxGeometry width="50" height="50" relative="1" as="geometry">
            <mxPoint x="70" y="105.57" as="sourcePoint" />
            <mxPoint x="230" y="105.57" as="targetPoint" />
          </mxGeometry>
        </mxCell>
        <mxCell id="NSWVSMQTn-rg3xyh7AuW-4" value="possui" style="shape=rhombus;perimeter=rhombusPerimeter;whiteSpace=wrap;html=1;align=center;" parent="1" vertex="1">
          <mxGeometry x="-50" y="76" width="120" height="60" as="geometry" />
        </mxCell>
        <mxCell id="NzRkkpI_Uqlwc4jCcrVL-3" value="id" style="ellipse;whiteSpace=wrap;html=1;align=center;fontStyle=4;" parent="1" vertex="1">
          <mxGeometry x="-160" y="215" width="100" height="40" as="geometry" />
        </mxCell>
        <mxCell id="NzRkkpI_Uqlwc4jCcrVL-5" value="nome" style="ellipse;whiteSpace=wrap;html=1;align=center;" parent="1" vertex="1">
          <mxGeometry x="-160" y="136" width="90" height="40" as="geometry" />
        </mxCell>
        <mxCell id="NzRkkpI_Uqlwc4jCcrVL-7" value="cria" style="shape=rhombus;perimeter=rhombusPerimeter;whiteSpace=wrap;html=1;align=center;" parent="1" vertex="1">
          <mxGeometry x="-20" y="482.25" width="100" height="49.5" as="geometry" />
        </mxCell>
        <mxCell id="NzRkkpI_Uqlwc4jCcrVL-10" value="FEEDBACK" style="whiteSpace=wrap;html=1;align=center;" parent="1" vertex="1">
          <mxGeometry x="-20" y="325" width="100" height="40" as="geometry" />
        </mxCell>
        <mxCell id="NzRkkpI_Uqlwc4jCcrVL-11" value="" style="endArrow=none;html=1;rounded=0;exitX=0.567;exitY=0.011;exitDx=0;exitDy=0;exitPerimeter=0;entryX=0.25;entryY=1;entryDx=0;entryDy=0;" parent="1" source="NzRkkpI_Uqlwc4jCcrVL-12" edge="1" target="NzRkkpI_Uqlwc4jCcrVL-10">
          <mxGeometry width="50" height="50" relative="1" as="geometry">
            <mxPoint x="-70" y="418" as="sourcePoint" />
            <mxPoint x="-20" y="368" as="targetPoint" />
          </mxGeometry>
        </mxCell>
        <mxCell id="NzRkkpI_Uqlwc4jCcrVL-12" value="id" style="ellipse;whiteSpace=wrap;html=1;align=center;fontStyle=4;" parent="1" vertex="1">
          <mxGeometry x="-100" y="387.5" width="80" height="35" as="geometry" />
        </mxCell>
        <mxCell id="NzRkkpI_Uqlwc4jCcrVL-13" value="descrição" style="ellipse;whiteSpace=wrap;html=1;align=center;" parent="1" vertex="1">
          <mxGeometry x="-130" y="322" width="80" height="38" as="geometry" />
        </mxCell>
        <mxCell id="JJOktlJ54aK_iMnFcqO--1" value="CERTIFICADO" style="whiteSpace=wrap;html=1;align=center;" vertex="1" parent="1">
          <mxGeometry x="-40" y="170" width="100" height="40" as="geometry" />
        </mxCell>
        <mxCell id="JJOktlJ54aK_iMnFcqO--2" value="" style="endArrow=none;html=1;rounded=0;exitX=1;exitY=0.5;exitDx=0;exitDy=0;entryX=0;entryY=0.5;entryDx=0;entryDy=0;" edge="1" parent="1" source="NzRkkpI_Uqlwc4jCcrVL-7" target="SfpXLWeZ3eAWJsOVhAZe-18">
          <mxGeometry relative="1" as="geometry">
            <mxPoint x="80" y="460" as="sourcePoint" />
            <mxPoint x="240" y="460" as="targetPoint" />
          </mxGeometry>
        </mxCell>
        <mxCell id="JJOktlJ54aK_iMnFcqO--3" value="" style="endArrow=none;html=1;rounded=0;exitX=1;exitY=0.5;exitDx=0;exitDy=0;entryX=0;entryY=0.5;entryDx=0;entryDy=0;" edge="1" parent="1" source="NzRkkpI_Uqlwc4jCcrVL-13" target="NzRkkpI_Uqlwc4jCcrVL-10">
          <mxGeometry relative="1" as="geometry">
            <mxPoint x="-140" y="470" as="sourcePoint" />
            <mxPoint x="20" y="470" as="targetPoint" />
          </mxGeometry>
        </mxCell>
        <mxCell id="JJOktlJ54aK_iMnFcqO--4" value="" style="endArrow=none;html=1;rounded=0;entryX=0.5;entryY=0;entryDx=0;entryDy=0;exitX=0.5;exitY=1;exitDx=0;exitDy=0;" edge="1" parent="1" source="NzRkkpI_Uqlwc4jCcrVL-10" target="NzRkkpI_Uqlwc4jCcrVL-7">
          <mxGeometry relative="1" as="geometry">
            <mxPoint x="-140" y="470" as="sourcePoint" />
            <mxPoint x="20" y="470" as="targetPoint" />
          </mxGeometry>
        </mxCell>
        <mxCell id="JJOktlJ54aK_iMnFcqO--5" value="" style="endArrow=none;html=1;rounded=0;exitX=0.5;exitY=1;exitDx=0;exitDy=0;entryX=0.5;entryY=0;entryDx=0;entryDy=0;" edge="1" parent="1" source="NSWVSMQTn-rg3xyh7AuW-4" target="JJOktlJ54aK_iMnFcqO--1">
          <mxGeometry relative="1" as="geometry">
            <mxPoint x="-140" y="270" as="sourcePoint" />
            <mxPoint x="20" y="270" as="targetPoint" />
          </mxGeometry>
        </mxCell>
        <mxCell id="JJOktlJ54aK_iMnFcqO--6" value="" style="endArrow=none;html=1;rounded=0;exitX=0.25;exitY=1;exitDx=0;exitDy=0;entryX=1;entryY=0.5;entryDx=0;entryDy=0;" edge="1" parent="1" source="JJOktlJ54aK_iMnFcqO--1" target="NzRkkpI_Uqlwc4jCcrVL-3">
          <mxGeometry relative="1" as="geometry">
            <mxPoint x="-140" y="270" as="sourcePoint" />
            <mxPoint x="20" y="270" as="targetPoint" />
          </mxGeometry>
        </mxCell>
        <mxCell id="JJOktlJ54aK_iMnFcqO--7" value="" style="endArrow=none;html=1;rounded=0;exitX=1;exitY=0.5;exitDx=0;exitDy=0;entryX=0.25;entryY=0;entryDx=0;entryDy=0;" edge="1" parent="1" source="NzRkkpI_Uqlwc4jCcrVL-5" target="JJOktlJ54aK_iMnFcqO--1">
          <mxGeometry relative="1" as="geometry">
            <mxPoint x="-140" y="270" as="sourcePoint" />
            <mxPoint x="20" y="270" as="targetPoint" />
          </mxGeometry>
        </mxCell>
      </root>
    </mxGraphModel>
  </diagram>
  <diagram id="zFY782fYL4z9GdTLD2dt" name="Modelo Pe de Galinha">
    <mxGraphModel dx="1969" dy="1791" grid="1" gridSize="10" guides="1" tooltips="1" connect="1" arrows="1" fold="1" page="1" pageScale="1" pageWidth="827" pageHeight="1169" math="0" shadow="0">
      <root>
        <mxCell id="0" />
        <mxCell id="1" parent="0" />
        <mxCell id="1a7eurVH76ErqX4VnJK8-96" value="ALUNO" style="whiteSpace=wrap;html=1;align=center;" vertex="1" parent="1">
          <mxGeometry x="240" y="97" width="100" height="40" as="geometry" />
        </mxCell>
        <mxCell id="1a7eurVH76ErqX4VnJK8-97" value="matricula&amp;nbsp;" style="shape=rhombus;perimeter=rhombusPerimeter;whiteSpace=wrap;html=1;align=center;" vertex="1" parent="1">
          <mxGeometry x="533" y="215" width="100" height="50" as="geometry" />
        </mxCell>
        <mxCell id="1a7eurVH76ErqX4VnJK8-98" value="nome" style="ellipse;whiteSpace=wrap;html=1;align=center;" vertex="1" parent="1">
          <mxGeometry x="160" y="27" width="70" height="30" as="geometry" />
        </mxCell>
        <mxCell id="1a7eurVH76ErqX4VnJK8-99" value="" style="endArrow=none;html=1;rounded=0;exitX=0.5;exitY=1;exitDx=0;exitDy=0;entryX=0.5;entryY=0;entryDx=0;entryDy=0;" edge="1" parent="1" source="1a7eurVH76ErqX4VnJK8-98" target="1a7eurVH76ErqX4VnJK8-96">
          <mxGeometry relative="1" as="geometry">
            <mxPoint x="500" y="157" as="sourcePoint" />
            <mxPoint x="660" y="157" as="targetPoint" />
          </mxGeometry>
        </mxCell>
        <mxCell id="1a7eurVH76ErqX4VnJK8-100" value="email" style="ellipse;whiteSpace=wrap;html=1;align=center;" vertex="1" parent="1">
          <mxGeometry x="190" y="-13" width="70" height="30" as="geometry" />
        </mxCell>
        <mxCell id="1a7eurVH76ErqX4VnJK8-101" value="" style="endArrow=none;html=1;rounded=0;exitX=0.5;exitY=0;exitDx=0;exitDy=0;entryX=0.5;entryY=1;entryDx=0;entryDy=0;" edge="1" parent="1" source="1a7eurVH76ErqX4VnJK8-96" target="1a7eurVH76ErqX4VnJK8-100">
          <mxGeometry relative="1" as="geometry">
            <mxPoint x="500" y="157" as="sourcePoint" />
            <mxPoint x="660" y="157" as="targetPoint" />
          </mxGeometry>
        </mxCell>
        <mxCell id="1a7eurVH76ErqX4VnJK8-102" value="id" style="ellipse;whiteSpace=wrap;html=1;align=center;fontStyle=4;" vertex="1" parent="1">
          <mxGeometry x="255" y="17" width="70" height="30" as="geometry" />
        </mxCell>
        <mxCell id="1a7eurVH76ErqX4VnJK8-103" value="" style="endArrow=none;html=1;rounded=0;exitX=0.5;exitY=0;exitDx=0;exitDy=0;entryX=0.5;entryY=1;entryDx=0;entryDy=0;" edge="1" parent="1" source="1a7eurVH76ErqX4VnJK8-96" target="1a7eurVH76ErqX4VnJK8-102">
          <mxGeometry relative="1" as="geometry">
            <mxPoint x="500" y="157" as="sourcePoint" />
            <mxPoint x="660" y="157" as="targetPoint" />
          </mxGeometry>
        </mxCell>
        <mxCell id="1a7eurVH76ErqX4VnJK8-104" value="curso_graduação_atual" style="ellipse;whiteSpace=wrap;html=1;align=center;" vertex="1" parent="1">
          <mxGeometry x="360" y="20" width="150" height="50" as="geometry" />
        </mxCell>
        <mxCell id="1a7eurVH76ErqX4VnJK8-105" value="" style="endArrow=none;html=1;rounded=0;exitX=0.5;exitY=0;exitDx=0;exitDy=0;entryX=0.5;entryY=1;entryDx=0;entryDy=0;" edge="1" parent="1" source="1a7eurVH76ErqX4VnJK8-96" target="1a7eurVH76ErqX4VnJK8-104">
          <mxGeometry relative="1" as="geometry">
            <mxPoint x="470" y="157" as="sourcePoint" />
            <mxPoint x="630" y="157" as="targetPoint" />
          </mxGeometry>
        </mxCell>
        <mxCell id="1a7eurVH76ErqX4VnJK8-106" value="senha" style="ellipse;whiteSpace=wrap;html=1;align=center;" vertex="1" parent="1">
          <mxGeometry x="325" y="-13" width="70" height="30" as="geometry" />
        </mxCell>
        <mxCell id="1a7eurVH76ErqX4VnJK8-107" value="" style="endArrow=none;html=1;rounded=0;exitX=0.5;exitY=0;exitDx=0;exitDy=0;entryX=0.5;entryY=1;entryDx=0;entryDy=0;" edge="1" parent="1" source="1a7eurVH76ErqX4VnJK8-96" target="1a7eurVH76ErqX4VnJK8-106">
          <mxGeometry relative="1" as="geometry">
            <mxPoint x="470" y="157" as="sourcePoint" />
            <mxPoint x="630" y="157" as="targetPoint" />
          </mxGeometry>
        </mxCell>
        <mxCell id="1a7eurVH76ErqX4VnJK8-108" value="PROJETO" style="whiteSpace=wrap;html=1;align=center;" vertex="1" parent="1">
          <mxGeometry x="768" y="320" width="100" height="40" as="geometry" />
        </mxCell>
        <mxCell id="1a7eurVH76ErqX4VnJK8-109" value="nome" style="ellipse;whiteSpace=wrap;html=1;align=center;" vertex="1" parent="1">
          <mxGeometry x="738" y="250" width="70" height="30" as="geometry" />
        </mxCell>
        <mxCell id="1a7eurVH76ErqX4VnJK8-110" value="curso" style="ellipse;whiteSpace=wrap;html=1;align=center;" vertex="1" parent="1">
          <mxGeometry x="830" y="250" width="70" height="30" as="geometry" />
        </mxCell>
        <mxCell id="1a7eurVH76ErqX4VnJK8-111" value="id" style="ellipse;whiteSpace=wrap;html=1;align=center;fontStyle=4;" vertex="1" parent="1">
          <mxGeometry x="738" y="390" width="70" height="30" as="geometry" />
        </mxCell>
        <mxCell id="1a7eurVH76ErqX4VnJK8-112" value="ORIENTADOR" style="whiteSpace=wrap;html=1;align=center;" vertex="1" parent="1">
          <mxGeometry x="240" y="497" width="100" height="40" as="geometry" />
        </mxCell>
        <mxCell id="1a7eurVH76ErqX4VnJK8-113" value="nome" style="ellipse;whiteSpace=wrap;html=1;align=center;" vertex="1" parent="1">
          <mxGeometry x="170" y="602" width="70" height="30" as="geometry" />
        </mxCell>
        <mxCell id="1a7eurVH76ErqX4VnJK8-114" value="email" style="ellipse;whiteSpace=wrap;html=1;align=center;" vertex="1" parent="1">
          <mxGeometry x="150" y="562" width="70" height="30" as="geometry" />
        </mxCell>
        <mxCell id="1a7eurVH76ErqX4VnJK8-115" value="id" style="ellipse;whiteSpace=wrap;html=1;align=center;fontStyle=4;" vertex="1" parent="1">
          <mxGeometry x="255" y="592" width="70" height="30" as="geometry" />
        </mxCell>
        <mxCell id="1a7eurVH76ErqX4VnJK8-116" value="senha" style="ellipse;whiteSpace=wrap;html=1;align=center;" vertex="1" parent="1">
          <mxGeometry x="360" y="562" width="70" height="30" as="geometry" />
        </mxCell>
        <mxCell id="1a7eurVH76ErqX4VnJK8-117" value="" style="endArrow=none;html=1;rounded=0;exitX=0.5;exitY=1;exitDx=0;exitDy=0;entryX=0.5;entryY=0;entryDx=0;entryDy=0;" edge="1" parent="1" source="1a7eurVH76ErqX4VnJK8-112" target="1a7eurVH76ErqX4VnJK8-115">
          <mxGeometry relative="1" as="geometry">
            <mxPoint x="290" y="552" as="sourcePoint" />
            <mxPoint x="630" y="482" as="targetPoint" />
          </mxGeometry>
        </mxCell>
        <mxCell id="1a7eurVH76ErqX4VnJK8-118" value="" style="endArrow=none;html=1;rounded=0;exitX=0.5;exitY=1;exitDx=0;exitDy=0;entryX=0.5;entryY=0;entryDx=0;entryDy=0;" edge="1" parent="1" source="1a7eurVH76ErqX4VnJK8-112" target="1a7eurVH76ErqX4VnJK8-114">
          <mxGeometry relative="1" as="geometry">
            <mxPoint x="290" y="552" as="sourcePoint" />
            <mxPoint x="630" y="482" as="targetPoint" />
          </mxGeometry>
        </mxCell>
        <mxCell id="1a7eurVH76ErqX4VnJK8-119" value="" style="endArrow=none;html=1;rounded=0;exitX=0.5;exitY=1;exitDx=0;exitDy=0;entryX=0.5;entryY=0;entryDx=0;entryDy=0;" edge="1" parent="1" source="1a7eurVH76ErqX4VnJK8-112" target="1a7eurVH76ErqX4VnJK8-116">
          <mxGeometry relative="1" as="geometry">
            <mxPoint x="470" y="467" as="sourcePoint" />
            <mxPoint x="630" y="467" as="targetPoint" />
          </mxGeometry>
        </mxCell>
        <mxCell id="1a7eurVH76ErqX4VnJK8-120" value="" style="endArrow=none;html=1;rounded=0;exitX=0.5;exitY=1;exitDx=0;exitDy=0;entryX=0.5;entryY=0;entryDx=0;entryDy=0;" edge="1" parent="1" source="1a7eurVH76ErqX4VnJK8-112" target="1a7eurVH76ErqX4VnJK8-113">
          <mxGeometry relative="1" as="geometry">
            <mxPoint x="470" y="467" as="sourcePoint" />
            <mxPoint x="630" y="467" as="targetPoint" />
          </mxGeometry>
        </mxCell>
        <mxCell id="1a7eurVH76ErqX4VnJK8-121" value="cria" style="shape=rhombus;perimeter=rhombusPerimeter;whiteSpace=wrap;html=1;align=center;" vertex="1" parent="1">
          <mxGeometry x="533" y="405" width="100" height="50" as="geometry" />
        </mxCell>
        <mxCell id="1a7eurVH76ErqX4VnJK8-122" value="" style="endArrow=none;html=1;rounded=0;exitX=1;exitY=0.5;exitDx=0;exitDy=0;" edge="1" parent="1" source="1a7eurVH76ErqX4VnJK8-112">
          <mxGeometry relative="1" as="geometry">
            <mxPoint x="470" y="380" as="sourcePoint" />
            <mxPoint x="430" y="517" as="targetPoint" />
          </mxGeometry>
        </mxCell>
        <mxCell id="1a7eurVH76ErqX4VnJK8-123" value="" style="endArrow=none;html=1;rounded=0;exitX=0.5;exitY=1;exitDx=0;exitDy=0;entryX=0.5;entryY=0;entryDx=0;entryDy=0;" edge="1" parent="1" source="1a7eurVH76ErqX4VnJK8-108" target="1a7eurVH76ErqX4VnJK8-111">
          <mxGeometry relative="1" as="geometry">
            <mxPoint x="633" y="330" as="sourcePoint" />
            <mxPoint x="793" y="330" as="targetPoint" />
          </mxGeometry>
        </mxCell>
        <mxCell id="1a7eurVH76ErqX4VnJK8-124" value="descrição" style="ellipse;whiteSpace=wrap;html=1;align=center;" vertex="1" parent="1">
          <mxGeometry x="830" y="391.25" width="70" height="30" as="geometry" />
        </mxCell>
        <mxCell id="1a7eurVH76ErqX4VnJK8-125" value="" style="endArrow=none;html=1;rounded=0;exitX=0.5;exitY=1;exitDx=0;exitDy=0;entryX=0.5;entryY=0;entryDx=0;entryDy=0;" edge="1" parent="1" source="1a7eurVH76ErqX4VnJK8-108" target="1a7eurVH76ErqX4VnJK8-124">
          <mxGeometry relative="1" as="geometry">
            <mxPoint x="633" y="330" as="sourcePoint" />
            <mxPoint x="793" y="330" as="targetPoint" />
          </mxGeometry>
        </mxCell>
        <mxCell id="1a7eurVH76ErqX4VnJK8-126" value="" style="endArrow=none;html=1;rounded=0;exitX=0.5;exitY=1;exitDx=0;exitDy=0;entryX=0.5;entryY=0;entryDx=0;entryDy=0;" edge="1" parent="1" source="1a7eurVH76ErqX4VnJK8-109" target="1a7eurVH76ErqX4VnJK8-108">
          <mxGeometry relative="1" as="geometry">
            <mxPoint x="598" y="405" as="sourcePoint" />
            <mxPoint x="758" y="405" as="targetPoint" />
          </mxGeometry>
        </mxCell>
        <mxCell id="1a7eurVH76ErqX4VnJK8-127" value="" style="endArrow=none;html=1;rounded=0;exitX=0.5;exitY=1;exitDx=0;exitDy=0;entryX=0.5;entryY=0;entryDx=0;entryDy=0;" edge="1" parent="1" source="1a7eurVH76ErqX4VnJK8-110" target="1a7eurVH76ErqX4VnJK8-108">
          <mxGeometry relative="1" as="geometry">
            <mxPoint x="598" y="405" as="sourcePoint" />
            <mxPoint x="758" y="405" as="targetPoint" />
          </mxGeometry>
        </mxCell>
        <mxCell id="1a7eurVH76ErqX4VnJK8-128" value="" style="endArrow=none;html=1;rounded=0;exitX=1;exitY=0.5;exitDx=0;exitDy=0;" edge="1" parent="1" source="1a7eurVH76ErqX4VnJK8-121">
          <mxGeometry relative="1" as="geometry">
            <mxPoint x="638" y="430" as="sourcePoint" />
            <mxPoint x="688" y="430" as="targetPoint" />
          </mxGeometry>
        </mxCell>
        <mxCell id="1a7eurVH76ErqX4VnJK8-129" value="" style="endArrow=none;html=1;rounded=0;" edge="1" parent="1">
          <mxGeometry relative="1" as="geometry">
            <mxPoint x="688" y="430" as="sourcePoint" />
            <mxPoint x="688" y="350" as="targetPoint" />
          </mxGeometry>
        </mxCell>
        <mxCell id="1a7eurVH76ErqX4VnJK8-130" value="" style="endArrow=none;html=1;rounded=0;" edge="1" parent="1">
          <mxGeometry relative="1" as="geometry">
            <mxPoint x="688" y="350" as="sourcePoint" />
            <mxPoint x="740" y="350" as="targetPoint" />
          </mxGeometry>
        </mxCell>
        <mxCell id="1a7eurVH76ErqX4VnJK8-131" value="" style="endArrow=none;html=1;rounded=0;exitX=1;exitY=0.5;exitDx=0;exitDy=0;" edge="1" parent="1" source="1a7eurVH76ErqX4VnJK8-97">
          <mxGeometry relative="1" as="geometry">
            <mxPoint x="608" y="380" as="sourcePoint" />
            <mxPoint x="688" y="240" as="targetPoint" />
          </mxGeometry>
        </mxCell>
        <mxCell id="1a7eurVH76ErqX4VnJK8-132" value="" style="endArrow=none;html=1;rounded=0;" edge="1" parent="1">
          <mxGeometry relative="1" as="geometry">
            <mxPoint x="688" y="240" as="sourcePoint" />
            <mxPoint x="688" y="330" as="targetPoint" />
          </mxGeometry>
        </mxCell>
        <mxCell id="1a7eurVH76ErqX4VnJK8-133" value="" style="endArrow=none;html=1;rounded=0;" edge="1" parent="1">
          <mxGeometry relative="1" as="geometry">
            <mxPoint x="688" y="330" as="sourcePoint" />
            <mxPoint x="750" y="330" as="targetPoint" />
          </mxGeometry>
        </mxCell>
        <mxCell id="1a7eurVH76ErqX4VnJK8-134" value="possui" style="shape=rhombus;perimeter=rhombusPerimeter;whiteSpace=wrap;html=1;align=center;" vertex="1" parent="1">
          <mxGeometry x="240" y="390" width="100" height="50" as="geometry" />
        </mxCell>
        <mxCell id="1a7eurVH76ErqX4VnJK8-135" value="" style="endArrow=none;html=1;rounded=0;entryX=0.5;entryY=1;entryDx=0;entryDy=0;" edge="1" parent="1" target="1a7eurVH76ErqX4VnJK8-134">
          <mxGeometry relative="1" as="geometry">
            <mxPoint x="290" y="470" as="sourcePoint" />
            <mxPoint x="630" y="380" as="targetPoint" />
          </mxGeometry>
        </mxCell>
        <mxCell id="1a7eurVH76ErqX4VnJK8-136" value="TURMA" style="whiteSpace=wrap;html=1;align=center;" vertex="1" parent="1">
          <mxGeometry x="240" y="300" width="100" height="40" as="geometry" />
        </mxCell>
        <mxCell id="1a7eurVH76ErqX4VnJK8-137" value="" style="endArrow=none;html=1;rounded=0;exitX=0.5;exitY=0;exitDx=0;exitDy=0;" edge="1" parent="1" source="1a7eurVH76ErqX4VnJK8-134">
          <mxGeometry relative="1" as="geometry">
            <mxPoint x="470" y="280" as="sourcePoint" />
            <mxPoint x="290" y="360" as="targetPoint" />
          </mxGeometry>
        </mxCell>
        <mxCell id="1a7eurVH76ErqX4VnJK8-138" value="possui" style="shape=rhombus;perimeter=rhombusPerimeter;whiteSpace=wrap;html=1;align=center;" vertex="1" parent="1">
          <mxGeometry x="240" y="200" width="100" height="50" as="geometry" />
        </mxCell>
        <mxCell id="1a7eurVH76ErqX4VnJK8-139" value="" style="endArrow=none;html=1;rounded=0;exitX=0.5;exitY=0;exitDx=0;exitDy=0;" edge="1" parent="1" source="1a7eurVH76ErqX4VnJK8-136">
          <mxGeometry relative="1" as="geometry">
            <mxPoint x="460" y="280" as="sourcePoint" />
            <mxPoint x="290" y="270" as="targetPoint" />
          </mxGeometry>
        </mxCell>
        <mxCell id="1a7eurVH76ErqX4VnJK8-140" value="" style="endArrow=none;html=1;rounded=0;exitX=0.5;exitY=1;exitDx=0;exitDy=0;" edge="1" parent="1" source="1a7eurVH76ErqX4VnJK8-96">
          <mxGeometry relative="1" as="geometry">
            <mxPoint x="460" y="280" as="sourcePoint" />
            <mxPoint x="290" y="180" as="targetPoint" />
          </mxGeometry>
        </mxCell>
        <mxCell id="1a7eurVH76ErqX4VnJK8-141" value="" style="endArrow=none;html=1;rounded=0;entryX=0;entryY=0.5;entryDx=0;entryDy=0;" edge="1" parent="1" target="1a7eurVH76ErqX4VnJK8-97">
          <mxGeometry relative="1" as="geometry">
            <mxPoint x="430" y="240" as="sourcePoint" />
            <mxPoint x="620" y="280" as="targetPoint" />
          </mxGeometry>
        </mxCell>
        <mxCell id="1a7eurVH76ErqX4VnJK8-142" value="" style="endArrow=none;html=1;rounded=0;" edge="1" parent="1">
          <mxGeometry relative="1" as="geometry">
            <mxPoint x="430" y="120" as="sourcePoint" />
            <mxPoint x="430" y="240" as="targetPoint" />
          </mxGeometry>
        </mxCell>
        <mxCell id="1a7eurVH76ErqX4VnJK8-143" value="" style="endArrow=none;html=1;rounded=0;entryX=0;entryY=0.5;entryDx=0;entryDy=0;" edge="1" parent="1" target="1a7eurVH76ErqX4VnJK8-121">
          <mxGeometry relative="1" as="geometry">
            <mxPoint x="430" y="430" as="sourcePoint" />
            <mxPoint x="560" y="460" as="targetPoint" />
          </mxGeometry>
        </mxCell>
        <mxCell id="1a7eurVH76ErqX4VnJK8-144" value="" style="endArrow=none;html=1;rounded=0;" edge="1" parent="1">
          <mxGeometry relative="1" as="geometry">
            <mxPoint x="430" y="430" as="sourcePoint" />
            <mxPoint x="430" y="520" as="targetPoint" />
          </mxGeometry>
        </mxCell>
        <mxCell id="1a7eurVH76ErqX4VnJK8-145" value="" style="endArrow=none;html=1;rounded=0;exitX=1;exitY=0.5;exitDx=0;exitDy=0;entryX=0;entryY=0.5;entryDx=0;entryDy=0;" edge="1" parent="1" source="1a7eurVH76ErqX4VnJK8-108">
          <mxGeometry relative="1" as="geometry">
            <mxPoint x="580" y="440" as="sourcePoint" />
            <mxPoint x="920" y="340.0000000000002" as="targetPoint" />
          </mxGeometry>
        </mxCell>
        <mxCell id="1a7eurVH76ErqX4VnJK8-146" value="possui" style="shape=rhombus;double=1;perimeter=rhombusPerimeter;whiteSpace=wrap;html=1;align=center;" vertex="1" parent="1">
          <mxGeometry x="920" y="310" width="120" height="60" as="geometry" />
        </mxCell>
        <mxCell id="1a7eurVH76ErqX4VnJK8-147" value="" style="endArrow=none;html=1;rounded=0;exitX=1;exitY=0.5;exitDx=0;exitDy=0;" edge="1" parent="1" source="1a7eurVH76ErqX4VnJK8-146">
          <mxGeometry relative="1" as="geometry">
            <mxPoint x="740" y="440" as="sourcePoint" />
            <mxPoint x="1060" y="340" as="targetPoint" />
          </mxGeometry>
        </mxCell>
        <mxCell id="1a7eurVH76ErqX4VnJK8-148" value="TAREFA" style="shape=ext;margin=3;double=1;whiteSpace=wrap;html=1;align=center;" vertex="1" parent="1">
          <mxGeometry x="1090" y="320" width="100" height="40" as="geometry" />
        </mxCell>
        <mxCell id="1a7eurVH76ErqX4VnJK8-149" value="&lt;span style=&quot;border-bottom: 1px dotted&quot;&gt;id&lt;/span&gt;" style="ellipse;whiteSpace=wrap;html=1;align=center;" vertex="1" parent="1">
          <mxGeometry x="1150" y="390" width="70" height="35" as="geometry" />
        </mxCell>
        <mxCell id="1a7eurVH76ErqX4VnJK8-150" value="id" style="ellipse;whiteSpace=wrap;html=1;align=center;fontStyle=4;" vertex="1" parent="1">
          <mxGeometry x="140" y="305" width="70" height="30" as="geometry" />
        </mxCell>
        <mxCell id="1a7eurVH76ErqX4VnJK8-151" value="nota" style="ellipse;whiteSpace=wrap;html=1;align=center;" vertex="1" parent="1">
          <mxGeometry x="1060" y="392.5" width="60" height="27.5" as="geometry" />
        </mxCell>
        <mxCell id="1a7eurVH76ErqX4VnJK8-152" value="" style="endArrow=none;html=1;rounded=0;exitX=0.5;exitY=1;exitDx=0;exitDy=0;entryX=0.5;entryY=0;entryDx=0;entryDy=0;" edge="1" parent="1" source="1a7eurVH76ErqX4VnJK8-148" target="1a7eurVH76ErqX4VnJK8-151">
          <mxGeometry relative="1" as="geometry">
            <mxPoint x="1060" y="310" as="sourcePoint" />
            <mxPoint x="1220" y="310" as="targetPoint" />
          </mxGeometry>
        </mxCell>
        <mxCell id="1a7eurVH76ErqX4VnJK8-153" value="" style="endArrow=none;html=1;rounded=0;exitX=0.5;exitY=0;exitDx=0;exitDy=0;entryX=0.5;entryY=1;entryDx=0;entryDy=0;" edge="1" parent="1" source="1a7eurVH76ErqX4VnJK8-149" target="1a7eurVH76ErqX4VnJK8-148">
          <mxGeometry relative="1" as="geometry">
            <mxPoint x="1060" y="310" as="sourcePoint" />
            <mxPoint x="1220" y="310" as="targetPoint" />
          </mxGeometry>
        </mxCell>
        <mxCell id="1a7eurVH76ErqX4VnJK8-154" value="" style="endArrow=none;html=1;rounded=0;exitX=0.5;exitY=0;exitDx=0;exitDy=0;" edge="1" parent="1" source="1a7eurVH76ErqX4VnJK8-148">
          <mxGeometry relative="1" as="geometry">
            <mxPoint x="1060" y="310" as="sourcePoint" />
            <mxPoint x="1140" y="280" as="targetPoint" />
          </mxGeometry>
        </mxCell>
        <mxCell id="1a7eurVH76ErqX4VnJK8-155" value="" style="endArrow=none;html=1;rounded=0;exitX=1;exitY=0.75;exitDx=0;exitDy=0;entryX=0;entryY=0.5;entryDx=0;entryDy=0;" edge="1" parent="1" source="1a7eurVH76ErqX4VnJK8-112" target="1a7eurVH76ErqX4VnJK8-156">
          <mxGeometry relative="1" as="geometry">
            <mxPoint x="380" y="470" as="sourcePoint" />
            <mxPoint x="540" y="527" as="targetPoint" />
          </mxGeometry>
        </mxCell>
        <mxCell id="1a7eurVH76ErqX4VnJK8-156" value="possui" style="shape=rhombus;perimeter=rhombusPerimeter;whiteSpace=wrap;html=1;align=center;" vertex="1" parent="1">
          <mxGeometry x="758" y="497" width="120" height="60" as="geometry" />
        </mxCell>
        <mxCell id="1a7eurVH76ErqX4VnJK8-157" value="" style="endArrow=none;html=1;rounded=0;entryX=0.5;entryY=0;entryDx=0;entryDy=0;" edge="1" parent="1" target="1a7eurVH76ErqX4VnJK8-156">
          <mxGeometry relative="1" as="geometry">
            <mxPoint x="818" y="380" as="sourcePoint" />
            <mxPoint x="818" y="480" as="targetPoint" />
          </mxGeometry>
        </mxCell>
        <mxCell id="1a7eurVH76ErqX4VnJK8-158" value="" style="endArrow=none;html=1;rounded=0;exitX=1;exitY=0.25;exitDx=0;exitDy=0;" edge="1" parent="1" source="1a7eurVH76ErqX4VnJK8-96" target="1a7eurVH76ErqX4VnJK8-159">
          <mxGeometry relative="1" as="geometry">
            <mxPoint x="540" y="140" as="sourcePoint" />
            <mxPoint x="700" y="140" as="targetPoint" />
          </mxGeometry>
        </mxCell>
        <mxCell id="1a7eurVH76ErqX4VnJK8-159" value="possui" style="shape=rhombus;perimeter=rhombusPerimeter;whiteSpace=wrap;html=1;align=center;" vertex="1" parent="1">
          <mxGeometry x="758" y="77" width="120" height="60" as="geometry" />
        </mxCell>
        <mxCell id="1a7eurVH76ErqX4VnJK8-160" value="" style="endArrow=none;html=1;rounded=0;exitX=0.5;exitY=1;exitDx=0;exitDy=0;entryX=0.5;entryY=0;entryDx=0;entryDy=0;" edge="1" parent="1" source="1a7eurVH76ErqX4VnJK8-159" target="1a7eurVH76ErqX4VnJK8-108">
          <mxGeometry relative="1" as="geometry">
            <mxPoint x="650" y="170" as="sourcePoint" />
            <mxPoint x="810" y="170" as="targetPoint" />
          </mxGeometry>
        </mxCell>
        <mxCell id="1a7eurVH76ErqX4VnJK8-161" value="" style="endArrow=none;html=1;rounded=0;exitX=1;exitY=0.5;exitDx=0;exitDy=0;entryX=0;entryY=0.5;entryDx=0;entryDy=0;" edge="1" parent="1" source="1a7eurVH76ErqX4VnJK8-150" target="1a7eurVH76ErqX4VnJK8-136">
          <mxGeometry relative="1" as="geometry">
            <mxPoint x="410" y="330" as="sourcePoint" />
            <mxPoint x="600" y="320" as="targetPoint" />
          </mxGeometry>
        </mxCell>
        <mxCell id="1a7eurVH76ErqX4VnJK8-162" value="" style="endArrow=none;html=1;rounded=0;" edge="1" parent="1">
          <mxGeometry relative="1" as="geometry">
            <mxPoint x="340" y="120" as="sourcePoint" />
            <mxPoint x="430" y="120" as="targetPoint" />
          </mxGeometry>
        </mxCell>
        <mxCell id="1a7eurVH76ErqX4VnJK8-163" value="" style="endArrow=none;html=1;rounded=0;" edge="1" parent="1">
          <mxGeometry relative="1" as="geometry">
            <mxPoint x="340" y="130" as="sourcePoint" />
            <mxPoint x="410" y="130" as="targetPoint" />
          </mxGeometry>
        </mxCell>
        <mxCell id="1a7eurVH76ErqX4VnJK8-164" value="favorita" style="shape=rhombus;perimeter=rhombusPerimeter;whiteSpace=wrap;html=1;align=center;" vertex="1" parent="1">
          <mxGeometry x="533" y="315" width="100" height="50" as="geometry" />
        </mxCell>
        <mxCell id="1a7eurVH76ErqX4VnJK8-165" value="" style="endArrow=none;html=1;rounded=0;" edge="1" parent="1">
          <mxGeometry relative="1" as="geometry">
            <mxPoint x="410" y="130" as="sourcePoint" />
            <mxPoint x="410" y="340" as="targetPoint" />
          </mxGeometry>
        </mxCell>
        <mxCell id="1a7eurVH76ErqX4VnJK8-166" value="" style="endArrow=none;html=1;rounded=0;entryX=0;entryY=0.5;entryDx=0;entryDy=0;" edge="1" parent="1" target="1a7eurVH76ErqX4VnJK8-164">
          <mxGeometry relative="1" as="geometry">
            <mxPoint x="410" y="340" as="sourcePoint" />
            <mxPoint x="590" y="310" as="targetPoint" />
          </mxGeometry>
        </mxCell>
        <mxCell id="1a7eurVH76ErqX4VnJK8-167" value="" style="endArrow=none;html=1;rounded=0;exitX=1;exitY=0.5;exitDx=0;exitDy=0;" edge="1" parent="1" source="1a7eurVH76ErqX4VnJK8-164">
          <mxGeometry relative="1" as="geometry">
            <mxPoint x="510" y="230" as="sourcePoint" />
            <mxPoint x="720" y="340" as="targetPoint" />
          </mxGeometry>
        </mxCell>
        <mxCell id="1a7eurVH76ErqX4VnJK8-168" value="" style="endArrow=none;html=1;rounded=0;" edge="1" parent="1">
          <mxGeometry width="50" height="50" relative="1" as="geometry">
            <mxPoint x="950" y="420" as="sourcePoint" />
            <mxPoint x="870" y="360" as="targetPoint" />
          </mxGeometry>
        </mxCell>
        <mxCell id="1a7eurVH76ErqX4VnJK8-169" value="numero_vagas" style="ellipse;whiteSpace=wrap;html=1;" vertex="1" parent="1">
          <mxGeometry x="910" y="420" width="100" height="40" as="geometry" />
        </mxCell>
        <mxCell id="1a7eurVH76ErqX4VnJK8-170" value="data_inicial" style="ellipse;whiteSpace=wrap;html=1;" vertex="1" parent="1">
          <mxGeometry x="1100" y="250" width="80" height="30" as="geometry" />
        </mxCell>
        <mxCell id="1a7eurVH76ErqX4VnJK8-171" value="" style="endArrow=none;html=1;rounded=0;" edge="1" parent="1">
          <mxGeometry width="50" height="50" relative="1" as="geometry">
            <mxPoint x="1190" y="345" as="sourcePoint" />
            <mxPoint x="1270" y="335" as="targetPoint" />
          </mxGeometry>
        </mxCell>
        <mxCell id="1a7eurVH76ErqX4VnJK8-172" value="data_final" style="ellipse;whiteSpace=wrap;html=1;" vertex="1" parent="1">
          <mxGeometry x="1270" y="315" width="80" height="35" as="geometry" />
        </mxCell>
        <mxCell id="1a7eurVH76ErqX4VnJK8-173" value="" style="endArrow=none;html=1;rounded=0;" edge="1" parent="1">
          <mxGeometry width="50" height="50" relative="1" as="geometry">
            <mxPoint x="1190" y="320" as="sourcePoint" />
            <mxPoint x="1240" y="270" as="targetPoint" />
          </mxGeometry>
        </mxCell>
        <mxCell id="1a7eurVH76ErqX4VnJK8-174" value="descrição" style="ellipse;whiteSpace=wrap;html=1;" vertex="1" parent="1">
          <mxGeometry x="1230" y="250" width="70" height="30" as="geometry" />
        </mxCell>
        <mxCell id="1a7eurVH76ErqX4VnJK8-175" value="" style="endArrow=none;html=1;rounded=0;" edge="1" parent="1">
          <mxGeometry width="50" height="50" relative="1" as="geometry">
            <mxPoint x="170" y="116" as="sourcePoint" />
            <mxPoint x="240" y="115.57" as="targetPoint" />
          </mxGeometry>
        </mxCell>
        <mxCell id="1a7eurVH76ErqX4VnJK8-179" value="cria" style="shape=rhombus;perimeter=rhombusPerimeter;whiteSpace=wrap;html=1;align=center;" vertex="1" parent="1">
          <mxGeometry x="-10" y="492.25" width="100" height="49.5" as="geometry" />
        </mxCell>
        <mxCell id="1a7eurVH76ErqX4VnJK8-180" value="FEEDBACK" style="whiteSpace=wrap;html=1;align=center;" vertex="1" parent="1">
          <mxGeometry x="-10" y="335" width="100" height="40" as="geometry" />
        </mxCell>
        <mxCell id="1a7eurVH76ErqX4VnJK8-181" value="" style="endArrow=none;html=1;rounded=0;exitX=0.567;exitY=0.011;exitDx=0;exitDy=0;exitPerimeter=0;entryX=0.25;entryY=1;entryDx=0;entryDy=0;" edge="1" parent="1" source="1a7eurVH76ErqX4VnJK8-182" target="1a7eurVH76ErqX4VnJK8-180">
          <mxGeometry width="50" height="50" relative="1" as="geometry">
            <mxPoint x="-60" y="428" as="sourcePoint" />
            <mxPoint x="-10" y="378" as="targetPoint" />
          </mxGeometry>
        </mxCell>
        <mxCell id="1a7eurVH76ErqX4VnJK8-182" value="id" style="ellipse;whiteSpace=wrap;html=1;align=center;fontStyle=4;" vertex="1" parent="1">
          <mxGeometry x="-90" y="397.5" width="80" height="35" as="geometry" />
        </mxCell>
        <mxCell id="1a7eurVH76ErqX4VnJK8-183" value="descrição" style="ellipse;whiteSpace=wrap;html=1;align=center;" vertex="1" parent="1">
          <mxGeometry x="-120" y="332" width="80" height="38" as="geometry" />
        </mxCell>
        <mxCell id="1a7eurVH76ErqX4VnJK8-184" value="CERTIFICADO" style="whiteSpace=wrap;html=1;align=center;" vertex="1" parent="1">
          <mxGeometry x="-70" y="97" width="100" height="40" as="geometry" />
        </mxCell>
        <mxCell id="1a7eurVH76ErqX4VnJK8-185" value="" style="endArrow=none;html=1;rounded=0;exitX=1;exitY=0.5;exitDx=0;exitDy=0;entryX=0;entryY=0.5;entryDx=0;entryDy=0;" edge="1" parent="1" source="1a7eurVH76ErqX4VnJK8-179" target="1a7eurVH76ErqX4VnJK8-112">
          <mxGeometry relative="1" as="geometry">
            <mxPoint x="90" y="470" as="sourcePoint" />
            <mxPoint x="250" y="470" as="targetPoint" />
          </mxGeometry>
        </mxCell>
        <mxCell id="1a7eurVH76ErqX4VnJK8-186" value="" style="endArrow=none;html=1;rounded=0;exitX=1;exitY=0.5;exitDx=0;exitDy=0;entryX=0;entryY=0.5;entryDx=0;entryDy=0;" edge="1" parent="1" source="1a7eurVH76ErqX4VnJK8-183" target="1a7eurVH76ErqX4VnJK8-180">
          <mxGeometry relative="1" as="geometry">
            <mxPoint x="-130" y="480" as="sourcePoint" />
            <mxPoint x="30" y="480" as="targetPoint" />
          </mxGeometry>
        </mxCell>
        <mxCell id="1a7eurVH76ErqX4VnJK8-187" value="" style="endArrow=none;html=1;rounded=0;entryX=0.5;entryY=0;entryDx=0;entryDy=0;" edge="1" parent="1" target="1a7eurVH76ErqX4VnJK8-179">
          <mxGeometry relative="1" as="geometry">
            <mxPoint x="40" y="410" as="sourcePoint" />
            <mxPoint x="30" y="480" as="targetPoint" />
          </mxGeometry>
        </mxCell>
        <mxCell id="1a7eurVH76ErqX4VnJK8-209" value="possui" style="shape=rhombus;perimeter=rhombusPerimeter;whiteSpace=wrap;html=1;align=center;" vertex="1" parent="1">
          <mxGeometry x="100" y="87" width="70" height="60" as="geometry" />
        </mxCell>
        <mxCell id="1a7eurVH76ErqX4VnJK8-210" value="" style="endArrow=none;html=1;rounded=0;" edge="1" parent="1">
          <mxGeometry width="50" height="50" relative="1" as="geometry">
            <mxPoint x="50" y="120" as="sourcePoint" />
            <mxPoint x="100" y="120" as="targetPoint" />
          </mxGeometry>
        </mxCell>
        <mxCell id="1a7eurVH76ErqX4VnJK8-211" value="" style="endArrow=none;html=1;rounded=0;" edge="1" parent="1">
          <mxGeometry width="50" height="50" relative="1" as="geometry">
            <mxPoint x="50" y="120" as="sourcePoint" />
            <mxPoint x="40" y="110" as="targetPoint" />
          </mxGeometry>
        </mxCell>
        <mxCell id="1a7eurVH76ErqX4VnJK8-212" value="" style="endArrow=none;html=1;rounded=0;" edge="1" parent="1">
          <mxGeometry width="50" height="50" relative="1" as="geometry">
            <mxPoint x="40" y="130" as="sourcePoint" />
            <mxPoint x="50" y="120" as="targetPoint" />
          </mxGeometry>
        </mxCell>
        <mxCell id="1a7eurVH76ErqX4VnJK8-213" value="" style="endArrow=none;html=1;rounded=0;" edge="1" parent="1">
          <mxGeometry width="50" height="50" relative="1" as="geometry">
            <mxPoint x="280" y="190" as="sourcePoint" />
            <mxPoint x="290" y="180" as="targetPoint" />
          </mxGeometry>
        </mxCell>
        <mxCell id="1a7eurVH76ErqX4VnJK8-214" value="" style="endArrow=none;html=1;rounded=0;" edge="1" parent="1">
          <mxGeometry width="50" height="50" relative="1" as="geometry">
            <mxPoint x="290" y="180" as="sourcePoint" />
            <mxPoint x="300" y="190" as="targetPoint" />
          </mxGeometry>
        </mxCell>
        <mxCell id="1a7eurVH76ErqX4VnJK8-216" value="" style="endArrow=none;html=1;rounded=0;" edge="1" parent="1">
          <mxGeometry width="50" height="50" relative="1" as="geometry">
            <mxPoint x="290" y="270" as="sourcePoint" />
            <mxPoint x="300" y="260" as="targetPoint" />
          </mxGeometry>
        </mxCell>
        <mxCell id="1a7eurVH76ErqX4VnJK8-217" value="" style="endArrow=none;html=1;rounded=0;" edge="1" parent="1">
          <mxGeometry width="50" height="50" relative="1" as="geometry">
            <mxPoint x="280" y="260" as="sourcePoint" />
            <mxPoint x="290" y="270" as="targetPoint" />
          </mxGeometry>
        </mxCell>
        <mxCell id="1a7eurVH76ErqX4VnJK8-218" value="" style="endArrow=none;html=1;rounded=0;" edge="1" parent="1">
          <mxGeometry width="50" height="50" relative="1" as="geometry">
            <mxPoint x="1060" y="340" as="sourcePoint" />
            <mxPoint x="1070" y="330" as="targetPoint" />
          </mxGeometry>
        </mxCell>
        <mxCell id="1a7eurVH76ErqX4VnJK8-219" value="" style="endArrow=none;html=1;rounded=0;" edge="1" parent="1">
          <mxGeometry width="50" height="50" relative="1" as="geometry">
            <mxPoint x="1060" y="340" as="sourcePoint" />
            <mxPoint x="1070" y="350" as="targetPoint" />
          </mxGeometry>
        </mxCell>
        <mxCell id="1a7eurVH76ErqX4VnJK8-220" value="" style="endArrow=none;html=1;rounded=0;" edge="1" parent="1">
          <mxGeometry width="50" height="50" relative="1" as="geometry">
            <mxPoint x="40" y="410" as="sourcePoint" />
            <mxPoint x="60" y="390" as="targetPoint" />
          </mxGeometry>
        </mxCell>
        <mxCell id="1a7eurVH76ErqX4VnJK8-222" value="" style="endArrow=none;html=1;rounded=0;" edge="1" parent="1">
          <mxGeometry width="50" height="50" relative="1" as="geometry">
            <mxPoint x="40" y="410" as="sourcePoint" />
            <mxPoint x="20" y="390" as="targetPoint" />
          </mxGeometry>
        </mxCell>
        <mxCell id="1a7eurVH76ErqX4VnJK8-223" value="" style="endArrow=none;html=1;rounded=0;" edge="1" parent="1">
          <mxGeometry width="50" height="50" relative="1" as="geometry">
            <mxPoint x="740" y="350" as="sourcePoint" />
            <mxPoint x="750" y="340" as="targetPoint" />
          </mxGeometry>
        </mxCell>
        <mxCell id="1a7eurVH76ErqX4VnJK8-224" value="" style="endArrow=none;html=1;rounded=0;" edge="1" parent="1">
          <mxGeometry width="50" height="50" relative="1" as="geometry">
            <mxPoint x="750" y="360" as="sourcePoint" />
            <mxPoint x="740" y="350" as="targetPoint" />
          </mxGeometry>
        </mxCell>
        <mxCell id="1a7eurVH76ErqX4VnJK8-225" value="" style="endArrow=none;html=1;rounded=0;" edge="1" parent="1">
          <mxGeometry width="50" height="50" relative="1" as="geometry">
            <mxPoint x="720" y="340" as="sourcePoint" />
            <mxPoint x="730" y="330" as="targetPoint" />
          </mxGeometry>
        </mxCell>
        <mxCell id="1a7eurVH76ErqX4VnJK8-226" value="" style="endArrow=none;html=1;rounded=0;" edge="1" parent="1">
          <mxGeometry width="50" height="50" relative="1" as="geometry">
            <mxPoint x="720" y="340" as="sourcePoint" />
            <mxPoint x="730" y="350" as="targetPoint" />
          </mxGeometry>
        </mxCell>
        <mxCell id="1a7eurVH76ErqX4VnJK8-227" value="" style="endArrow=none;html=1;rounded=0;" edge="1" parent="1">
          <mxGeometry width="50" height="50" relative="1" as="geometry">
            <mxPoint x="750" y="330" as="sourcePoint" />
            <mxPoint x="760" y="320" as="targetPoint" />
          </mxGeometry>
        </mxCell>
        <mxCell id="1a7eurVH76ErqX4VnJK8-228" value="" style="endArrow=none;html=1;rounded=0;" edge="1" parent="1">
          <mxGeometry width="50" height="50" relative="1" as="geometry">
            <mxPoint x="750" y="330" as="sourcePoint" />
            <mxPoint x="760" y="340" as="targetPoint" />
          </mxGeometry>
        </mxCell>
        <mxCell id="1a7eurVH76ErqX4VnJK8-232" value="" style="endArrow=none;html=1;rounded=0;" edge="1" parent="1">
          <mxGeometry width="50" height="50" relative="1" as="geometry">
            <mxPoint x="820" y="380" as="sourcePoint" />
            <mxPoint x="830" y="370" as="targetPoint" />
          </mxGeometry>
        </mxCell>
        <mxCell id="1a7eurVH76ErqX4VnJK8-233" value="" style="endArrow=none;html=1;rounded=0;" edge="1" parent="1">
          <mxGeometry width="50" height="50" relative="1" as="geometry">
            <mxPoint x="810" y="370" as="sourcePoint" />
            <mxPoint x="820" y="380" as="targetPoint" />
          </mxGeometry>
        </mxCell>
        <mxCell id="1a7eurVH76ErqX4VnJK8-235" value="" style="endArrow=none;html=1;rounded=0;" edge="1" parent="1">
          <mxGeometry width="50" height="50" relative="1" as="geometry">
            <mxPoint x="280" y="480" as="sourcePoint" />
            <mxPoint x="290" y="470" as="targetPoint" />
          </mxGeometry>
        </mxCell>
        <mxCell id="1a7eurVH76ErqX4VnJK8-236" value="" style="endArrow=none;html=1;rounded=0;" edge="1" parent="1">
          <mxGeometry width="50" height="50" relative="1" as="geometry">
            <mxPoint x="290" y="470" as="sourcePoint" />
            <mxPoint x="300" y="480" as="targetPoint" />
          </mxGeometry>
        </mxCell>
        <mxCell id="1a7eurVH76ErqX4VnJK8-237" value="" style="endArrow=none;html=1;rounded=0;" edge="1" parent="1">
          <mxGeometry width="50" height="50" relative="1" as="geometry">
            <mxPoint x="290" y="360" as="sourcePoint" />
            <mxPoint x="300" y="350" as="targetPoint" />
          </mxGeometry>
        </mxCell>
        <mxCell id="1a7eurVH76ErqX4VnJK8-238" value="" style="endArrow=none;html=1;rounded=0;" edge="1" parent="1">
          <mxGeometry width="50" height="50" relative="1" as="geometry">
            <mxPoint x="280" y="350" as="sourcePoint" />
            <mxPoint x="290" y="360" as="targetPoint" />
          </mxGeometry>
        </mxCell>
      </root>
    </mxGraphModel>
  </diagram>
</mxfile>
